<?xml version="1.0" encoding="UTF-8" standalone="yes"?><svg xmlns="http://www.w3.org/2000/svg" xmlns:xlink="http://www.w3.org/1999/xlink" width="266.946mm" height="297.000mm" viewBox="0.000000 0.000000 266.946442 297.000000" stroke-linejoin="round" stroke-linecap="round" fill="none" fill-rule="evenodd"><desc>Composer Export</desc><script type="text/ecmascript"><![CDATA[
if(typeof(top) != "undefined")
{
	top.ShowPaper = ShowPaper;
}
function ShowHotSpot(evt,hotspotid)
{
	var svgDocument = evt.target.ownerDocument;
	var strId = "hotspot."+hotspotid;
	var hotspot = svgDocument.getElementById(strId);
	if(hotspot)
		hotspot.setAttribute("opacity",".5");
}
function HideHotSpot(evt,hotspotid)
{
	var svgDocument = evt.target.ownerDocument;
	var strId = "hotspot."+hotspotid;
	var hotspot = svgDocument.getElementById(strId);
	if(hotspot)
		hotspot.setAttribute("opacity","0");

	var toolTip = svgDocument.getElementById('ToolTip');
	if(toolTip)
		toolTip.setAttribute("visibility","hidden");
}
function ShowToolTip(evt,hotspotid,strTooltip)
{
	if(strTooltip=="")
	return;

	// change text
	var svgDocument = evt.target.ownerDocument;
	var tiptext = svgDocument.getElementById('ToolTipText');
	if( !tiptext )
	return;
	tiptext.firstChild.nodeValue = " " + strTooltip + "  " ;

	// show tooltip before, else some refresh issue

	var toolTip = svgDocument.getElementById('ToolTip');
	if(!toolTip)
	return;

	toolTip.setAttribute("visibility","visible");
	toolTip.setAttribute("opacity",".95");

	// move tooltip
	// get viewbox

	var root = svgDocument.documentElement;
	var vbox = (root.getAttribute("viewBox")).split(' ');
	var x0 = parseFloat(vbox[0]);
	var y0 = parseFloat(vbox[1]);
	var vboxW = parseFloat(vbox[2]);
	var vboxH = parseFloat(vbox[3]);

	// get default width of svg

	var strW = root.getAttribute("width");
	var svgW = parseFloat(strW);
	if(strW.indexOf('mm') != -1)
	svgW *= 3.779;

	var strH = root.getAttribute("height");
	var svgH = parseFloat(strH);
	if(strH.indexOf('mm') != -1)
	svgH *= 3.779;  	// 96 dpi  -> 96/25.4 = 3.779

	// update the viewbox / width / height if svg is embedded in html with zoom fit all
	var realx0 = x0;
	var realy0 = y0;
	var realvboxW = vboxW;
	var realvboxH = vboxH;
	var realsvgW = svgW;
	var realsvgH = svgH;

	if ((typeof(top) == "undefined") || (typeof(top.svgctl1) != "undefined")) // embedded in html
	{
		// get window size in pxl

		svgW = window.innerWidth;
		svgH = window.innerHeight;

		// calculate real viewbox

		realsvgW = svgW;
		realsvgH = svgH;
		if((svgW / svgH) > (vboxW / vboxH))
		{
			realvboxW = (vboxH * svgW) / svgH;
			realvboxH = vboxH;
			realx0 = x0 - (realvboxW - vboxW)/2 ;
		}
		else
		{
			realvboxH = (vboxW * svgH) / svgW;
			realvboxW = vboxW;
			realy0 = y0 - (realvboxH - vboxH)/2 ;
		}
	}

	// get user zoom/pan

	var newScale = root.currentScale;
	var translation = root.currentTranslate;

	// transform pxl to user unit

	var xPos = (((evt.clientX+10- translation.x)/newScale) * realvboxW)/realsvgW  + realx0 ;
	var yPos = (((evt.clientY+5- translation.y)/newScale) * realvboxH)/ realsvgH  + realy0 ;
	var scaleForWidth = ( (1 / newScale) * realvboxH) / realsvgH;

	// move tooltip

	toolTip.setAttribute("transform", "translate(" + xPos + "," + yPos + ")" );

	// resize tooltip

	var fontsize = 12;
	tiptext.setAttribute("font-size",fontsize*scaleForWidth);
	tiptext.setAttribute("y", fontsize*scaleForWidth);
	var tipBG = svgDocument.getElementById('ToolTipBG');
	var outline = tiptext.getBBox();
	if(tipBG)
	{
		tipBG.setAttribute("stroke-width", 1*scaleForWidth);
		tipBG.setAttribute("width", Number(outline.width) );
		tipBG.setAttribute("height", Number(outline.height) + fontsize*.5*scaleForWidth );
	}
	var ToolTipShadow = svgDocument.getElementById('ToolTipShadow');
	if(ToolTipShadow)
	{
		ToolTipShadow.setAttribute("width", Number(outline.width) );
		ToolTipShadow.setAttribute("height", Number(outline.height) + fontsize*.5*scaleForWidth );
		ToolTipShadow.setAttribute("x", 3*scaleForWidth);
		ToolTipShadow.setAttribute("y", 3*scaleForWidth);
	}
}
function ShowPaper()
{
  var svgDocument = getDocument();
  var paper = svgDocument.getElementById("paperID");
  if(paper)
  {
    paper.setAttribute("transform","scale(1)");
    paper.setAttribute("opacity","1");
    paper.setAttribute("visibility","visible");
  }
  var svg = svgDocument.getRootElement();
  if(svg)
  {
    svg.setAttribute("width","276.946mm");
    svg.setAttribute("height","307.000mm");
    svg.setAttribute("viewBox","-5.000000 -5.000000 276.946442 307.000000");
  }
}
]]></script><defs/><g><g id="Actor_.0"><g style="stroke:#000000;stroke-width:0.353"><path d="M125.25,158.67L125.23,158.67L124.86,158.70L124.10,158.72L123.01,158.73L121.73,158.74L121.48,158.74L121.50,150.94"/></g><g style="stroke:#000000;stroke-width:0.705"><path d="M117.19,161.81L117.18,162.68L117.44,162.72L118.12,162.76L119.13,162.79L120.38,162.81L121.72,162.81L123.00,162.80L124.09,162.78L124.85,162.75L125.22,162.71L125.25,158.67L121.48,158.74L120.39,158.74L119.14,158.72L118.35,158.71L118.13,158.70L117.46,158.68L117.19,158.65L117.19,161.81"/><path d="M117.19,158.65L117.22,150.93"/><path d="M125.25,158.67L125.27,150.95"/></g></g><g id="Actor_.1"><g style="stroke:#000000;stroke-width:0.705"><path d="M132.18,145.36L132.17,150.94L131.94,150.95L131.12,150.95L127.90,150.95L120.59,150.94L113.59,150.91L111.98,150.91L110.35,150.89L110.41,130.66L110.93,130.55L112.03,130.45L113.65,130.36L115.70,130.30L118.08,130.26L120.64,130.25L123.24,130.27L125.73,130.31L127.96,130.38L129.80,130.47L131.17,130.57L131.99,130.69L132.22,130.80L132.19,143.90"/></g></g><g id="Actor_.2"><g style="stroke:#000000;stroke-width:0.353"><path d="M113.05,128.50L113.16,128.48L113.39,128.47L113.69,128.46L114.05,128.45L114.42,128.46L114.76,128.47L115.03,128.48L115.21,128.50L115.28,128.52"/></g><g style="stroke:#000000;stroke-width:0.705"><path d="M115.28,129.45L115.28,128.52L115.28,128.48L115.26,128.44L115.23,128.42L115.20,128.40L115.14,128.38L115.10,128.38L114.94,128.36L114.69,128.35L114.39,128.34L114.06,128.34L113.74,128.34L113.47,128.35L113.27,128.36L113.14,128.38L113.10,128.40L113.07,128.43L113.06,128.46L113.05,128.50L113.05,129.56"/></g></g><g id="Actor_.3"><g style="stroke:#000000;stroke-width:0.353"><path d="M111.11,167.22L111.42,167.31L112.31,167.41L113.73,167.49L115.61,167.56L117.84,167.61L120.27,167.64L122.76,167.64L125.15,167.61L127.29,167.56L129.06,167.50L130.36,167.41L131.11,167.32L131.27,167.22"/><path d="M130.51,167.20L129.99,167.10L128.93,167.02L127.40,166.95L125.50,166.89L123.35,166.85L121.06,166.84L118.79,166.85L117.70,166.86L116.66,166.88L114.79,166.94L113.32,167.01L112.31,167.09L111.86,167.19"/></g><g style="stroke:#000000;stroke-width:0.705"><path d="M131.15,214.69L131.27,167.22L130.85,167.12L129.88,167.03L128.43,166.95L126.57,166.88L124.42,166.84L122.10,166.82L119.73,166.82L117.43,166.84L115.57,166.88L113.57,166.95L112.23,167.03L111.39,167.12L111.11,167.22L110.84,268.25L111.15,268.93L112.03,269.56L113.46,270.12L115.34,270.56L117.56,270.86L119.99,271.00L122.49,270.96L124.88,270.76L127.03,270.39L128.80,269.90L130.10,269.31L130.85,268.65L131.01,267.96L131.14,216.34"/><path d="M111.86,167.19L111.99,167.28L112.71,167.38L113.98,167.46L115.72,167.53L117.62,167.57L120.15,167.60L122.55,167.61L124.86,167.58L126.92,167.54L128.60,167.47L129.81,167.39L130.45,167.29L130.51,167.20"/></g></g><g id="Actor_.4"><g style="stroke:#000000;stroke-width:0.353"><path d="M135.85,289.82L135.66,290.80L134.89,291.76L133.56,292.65L131.72,293.46L129.43,294.13L126.79,294.63L123.89,294.96L120.86,295.08L117.83,295.00L114.93,294.72L112.28,294.25L109.99,293.61L108.15,292.84L106.83,291.95L106.07,291.01L105.89,290.03"/><path d="M109.49,289.14L109.12,290.01L109.34,290.88L110.15,291.71L111.52,292.47L113.38,293.10L115.64,293.57L118.18,293.86L120.86,293.94L123.55,293.82L126.09,293.49L128.35,292.99L130.21,292.34L131.58,291.56L132.40,290.72L132.62,289.84L132.26,288.98"/><path d="M109.94,289.19L110.14,290.00L110.90,290.77L112.17,291.47L113.90,292.05L116.01,292.48L118.37,292.75L120.87,292.83L123.37,292.71L125.73,292.42L127.83,291.95L129.56,291.35L130.84,290.63L131.60,289.85L131.82,289.04"/><path d="M131.82,274.72L131.73,275.48L131.06,276.22L129.82,276.89L128.08,277.47L125.93,277.92L123.49,278.20L120.91,278.31L118.32,278.23L115.88,277.98L113.73,277.56L111.99,277.00L110.76,276.34L110.09,275.61L110.01,274.85"/><path d="M111.99,293.15L111.94,293.08L111.81,293.01L111.63,292.96L111.41,292.94L111.17,292.94L110.94,292.97L110.75,293.02L110.61,293.09L110.55,293.16"/><path d="M131.00,275.28L130.95,274.56L130.32,273.87L129.15,273.25L127.53,272.73L125.54,272.34L123.30,272.11L120.94,272.04L118.57,272.14L116.32,272.40L114.33,272.81L112.70,273.34L111.53,273.98L110.89,274.67L110.82,275.40"/><path d="M131.17,293.02L131.11,292.94L130.97,292.87L130.78,292.83L130.56,292.80L130.32,292.80L130.10,292.83L129.91,292.88L129.79,292.95L129.73,293.03"/></g><g style="stroke:#000000;stroke-width:0.705"><path d="M109.95,286.80L108.67,287.30L107.23,288.14L106.28,289.06L105.89,290.03L105.88,291.24L106.07,292.23L106.83,293.18L108.15,294.07L109.99,294.86L112.28,295.50L114.93,295.97L117.83,296.26L120.86,296.34L123.88,296.21L126.78,295.89L129.43,295.37L131.72,294.70L133.56,293.89L134.89,292.98L135.65,292.02L135.84,291.03L135.85,289.82L135.46,288.86L134.53,287.95L133.10,287.13L131.82,286.65"/><path d="M109.49,289.14L109.94,288.71"/><path d="M109.93,289.19L110.01,274.85L110.52,274.11L111.57,273.43L113.11,272.83L115.05,272.36L117.28,272.02L119.70,271.84L122.17,271.83L124.59,271.98L126.82,272.29L128.75,272.74L130.28,273.32L131.32,273.99L131.82,274.72L131.82,278.65"/><path d="M111.99,293.15L111.97,293.23L111.87,293.31L111.70,293.37L111.49,293.41L111.25,293.43L111.02,293.41L110.81,293.38L110.65,293.32L110.56,293.24L110.55,293.16"/><path d="M131.00,275.28L130.47,276.00L129.36,276.66L127.75,277.23L125.72,277.67L123.39,277.95L120.91,278.06L118.42,277.98L116.10,277.73L114.07,277.31L112.45,276.76L111.35,276.11L110.82,275.40"/><path d="M129.73,293.03L129.76,293.11L129.86,293.18L130.02,293.24L130.23,293.28L130.47,293.29L130.70,293.27L130.91,293.23L131.07,293.17L131.16,293.10L131.17,293.02"/><path d="M131.82,289.04L131.82,280.53"/><path d="M132.26,288.98L131.82,288.56"/></g></g><g id="Actor_.5"><g style="stroke:#000000;stroke-width:0.353"><path d="M129.56,128.57L129.51,128.55L129.34,128.54L129.07,128.52L128.73,128.51L128.37,128.51L128.01,128.51L127.69,128.52L127.46,128.54L127.34,128.55L127.33,128.57"/><path d="M127.46,128.43L127.46,128.43"/></g><g style="stroke:#000000;stroke-width:0.705"><path d="M129.56,129.63L129.56,128.57L129.55,128.54L129.54,128.50L129.51,128.47L129.47,128.46L129.43,128.44L129.39,128.43L129.24,128.42L129.00,128.41L128.70,128.40L128.37,128.40L128.05,128.40L127.78,128.41L127.57,128.42L127.42,128.44L127.39,128.46L127.36,128.48L127.35,128.52L127.34,128.54L127.33,128.57L127.33,129.50"/></g></g><g id="Actor_.6"><g style="stroke:#000000;stroke-width:0.705"><path d="M130.82,130.55L130.82,129.82L130.27,129.70L129.15,129.59L127.51,129.50L125.46,129.43L123.13,129.38L120.68,129.37L118.27,129.38L116.07,129.42L114.21,129.49L112.81,129.58L111.97,129.68L111.72,129.80L111.72,130.48"/><path d="M115.26,128.44L115.26,126.82L115.53,126.71L116.37,126.62L117.71,126.56L119.41,126.51L121.31,126.51L123.20,126.53L124.90,126.58L126.24,126.67L127.08,126.76L127.36,126.87L127.35,128.50"/></g></g><g id="Actor_.7"><g style="stroke:#000000;stroke-width:0.705"><path d="M86.62,104.53L85.81,104.53"/><path d="M86.70,100.48L85.79,100.48"/><path d="M158.54,104.93L90.11,104.55"/><path d="M158.59,100.90L90.09,100.50"/><path d="M162.03,104.95L173.99,105.02"/><path d="M174.04,100.99L161.97,100.92"/></g></g><g id="Actor_.8"><g style="stroke:#000000;stroke-width:0.353"><path d="M122.48,108.72L122.41,109.09L122.22,109.41L121.95,109.65L121.60,109.79L121.24,109.81L120.88,109.71L120.58,109.50L120.36,109.20L120.25,108.85"/><path d="M120.69,109.42L120.66,109.40L120.47,109.13L120.37,108.82L120.37,108.49L120.49,108.18L120.70,107.93L120.98,107.76L121.30,107.69L121.62,107.72L121.92,107.86L122.16,108.09L122.31,108.38L122.35,108.71L122.29,109.03L122.13,109.32L121.88,109.53L121.58,109.66L121.25,109.68L120.93,109.59L120.69,109.42"/><path d="M120.81,108.91L120.89,108.37L120.89,108.32L120.81,108.91"/><path d="M121.15,109.17L121.36,108.76L120.91,108.48L120.85,108.64L120.85,108.66L120.85,108.81L120.90,108.97L120.92,108.99"/><path d="M121.86,108.80L121.36,108.76L121.33,108.22L121.16,108.26L121.44,108.15L121.43,108.10L120.89,108.32"/><path d="M121.36,108.76L121.87,108.75"/><path d="M121.35,109.24L121.30,109.24L121.21,109.22"/><path d="M120.89,108.37L121.16,108.26L121.02,108.35L120.91,108.48"/><path d="M121.43,108.10L121.90,108.46"/><path d="M121.44,108.15L121.67,108.33L121.65,108.31L121.49,108.24L121.33,108.22"/><path d="M121.87,108.74L121.84,108.58L121.77,108.43L121.67,108.33L121.90,108.51"/><path d="M121.72,109.09L121.75,109.06L121.84,108.91L121.85,108.86"/></g><g style="stroke:#000000;stroke-width:0.705"><path d="M120.25,108.85L120.25,108.48L120.38,108.14L120.62,107.85L120.93,107.66L121.29,107.58L121.66,107.62L121.99,107.77L122.26,108.03L122.42,108.36L122.48,108.72L122.48,108.73"/><path d="M121.90,108.46L121.82,109.05L121.28,109.27L120.81,108.91"/></g></g><g id="Actor_.9"><g style="stroke:#000000;stroke-width:0.353"><path d="M85.83,105.35L85.75,105.17L85.68,104.71L85.62,104.00L85.59,103.13L85.57,102.19L85.59,101.28L85.63,100.51L85.69,99.96L85.77,99.69"/><path d="M85.82,104.54L85.83,104.53"/><path d="M85.78,100.49L85.79,100.50"/></g><g style="stroke:#000000;stroke-width:0.705"><path d="M85.99,104.53L85.97,104.79L85.90,105.22L85.83,105.35L81.78,105.33L81.69,105.15L81.61,104.69L81.55,103.98L81.51,103.11L81.50,102.16L81.51,101.26L81.56,100.49L81.63,99.94L81.71,99.66L85.77,99.69L85.84,99.72L85.92,100.06L85.97,100.48"/><path d="M85.82,104.54L85.82,104.53"/><path d="M85.69,103.76L85.68,103.57L85.67,103.49"/><path d="M85.76,104.37L85.77,104.41L85.79,104.46"/><path d="M85.71,104.01L85.72,104.08L85.74,104.20"/><path d="M85.65,102.20L85.64,102.28L85.65,102.53"/><path d="M85.66,103.19L85.65,102.95L85.65,102.87"/><path d="M85.66,101.56L85.66,101.63L85.65,101.88"/><path d="M85.69,101.03L85.68,101.08L85.67,101.29"/><path d="M85.71,100.84L85.73,100.69L85.73,100.66"/><path d="M85.78,100.49L85.76,100.57"/></g></g><g id="Actor_.10"><g style="stroke:#000000;stroke-width:0.353"><path d="M118.96,110.88L118.69,110.83L118.55,110.75L118.68,110.67L119.05,110.61L119.08,110.60L119.70,110.55L120.48,110.51L121.35,110.51L122.22,110.52L123.01,110.56L123.63,110.63L124.02,110.70L124.15,110.78L124.01,110.86L123.74,110.91"/><path d="M118.02,110.75L118.03,110.74L118.07,110.73L118.07,110.72"/><path d="M118.07,110.73L119.52,110.50L119.59,110.49L119.67,110.49L119.88,110.48L119.88,110.27"/><path d="M119.33,122.44L119.35,122.42L119.56,122.38L119.97,122.35L120.52,122.33L121.16,122.32L121.81,122.33L122.42,122.35L122.90,122.38L123.21,122.42L123.32,122.46"/><path d="M119.36,111.56L119.45,111.51L119.73,111.46L120.17,111.42L120.73,111.40L121.35,111.39L121.97,111.40L122.53,111.43L122.97,111.47L123.25,111.53L123.35,111.58"/><path d="M119.52,110.50L119.52,110.49"/><path d="M122.16,122.46L122.12,122.47L121.99,122.49L121.78,122.50L121.71,122.50L121.53,122.51L121.25,122.51L120.99,122.50L120.75,122.49L120.58,122.47L120.49,122.46L120.48,122.45"/><path d="M119.88,110.48L122.83,110.50L123.03,110.51L123.11,110.51L123.18,110.52L123.18,110.51"/><path d="M124.69,110.79L124.68,110.78L124.64,110.77L123.18,110.52"/><path d="M122.83,110.50L122.83,110.29"/><path d="M124.64,110.77L124.64,110.75"/></g><g style="stroke:#000000;stroke-width:0.705"><path d="M118.02,110.73L118.02,110.75L118.03,110.76L118.07,110.77L119.04,110.93"/><path d="M123.68,110.93L123.50,111.11L123.39,111.34L123.35,111.58L123.32,122.46L123.21,122.50L122.89,122.54L122.41,122.56L121.81,122.58L121.16,122.58L120.52,122.57L119.98,122.54L119.57,122.51L119.36,122.46L119.33,122.44L119.36,111.56L119.32,111.31L119.20,111.09L119.02,110.91"/><path d="M118.93,110.87L119.04,110.92"/><path d="M120.48,122.45L120.49,122.44L120.58,122.42L120.75,122.41L120.98,122.40L121.25,122.40L121.53,122.40L121.78,122.41L121.99,122.42L122.12,122.44L122.16,122.46"/><path d="M123.67,110.95L123.78,110.89"/><path d="M124.69,110.76L124.69,110.79L124.67,110.79L124.63,110.80L123.66,110.95"/></g></g><g id="Actor_.11"><g style="stroke:#000000;stroke-width:0.353"><path d="M80.86,101.56L80.85,103.18L80.64,103.18"/><path d="M80.85,103.18L81.05,103.40"/></g><g style="stroke:#000000;stroke-width:0.705"><path d="M80.64,101.56L80.86,101.56L81.05,101.79L81.05,103.40L80.64,103.40"/></g></g><g id="Actor_Pendulum assembly.0"><g style="stroke:#000000;stroke-width:0.353"><path d="M120.80,110.09L121.90,110.09L122.08,110.01L122.48,109.70L122.75,109.28L122.88,108.80L122.84,108.30L122.64,107.83L122.30,107.46L121.86,107.22L121.36,107.13L120.86,107.21L120.42,107.45L120.08,107.82L119.87,108.28L119.83,108.78L119.95,109.27L120.23,109.69L120.62,110.00L120.80,110.09L119.72,110.08L119.72,110.29L78.80,110.07"/><path d="M80.60,95.93L80.48,97.00L78.84,96.99"/><path d="M80.45,107.22L80.48,97.00"/><path d="M80.65,99.63L81.27,99.64L81.25,106.05"/><path d="M81.27,99.64L80.65,98.86"/><path d="M86.60,106.03L162.05,106.44"/><path d="M90.23,98.06L90.13,98.34L90.04,99.04L89.98,100.10L89.94,101.41L86.67,101.40"/><path d="M89.94,101.41L89.89,105.64"/><path d="M90.45,104.55L90.40,105.14L90.34,105.53L90.26,105.59"/><path d="M90.24,99.46L90.32,99.58L90.39,100.02L90.42,100.51"/><path d="M117.86,110.75L119.06,110.95"/><path d="M119.72,110.08L119.73,110.27"/><path d="M119.72,110.29L119.73,110.48"/><path d="M120.24,108.73L120.25,108.77"/><path d="M120.70,107.80L120.66,107.82"/><path d="M120.41,108.10L120.46,108.04"/><path d="M120.27,108.42L120.31,108.33"/><path d="M121.01,107.64L120.99,107.64"/><path d="M121.38,107.59L121.36,107.58"/><path d="M121.90,110.09L122.98,110.10L122.98,110.30L132.23,110.35"/><path d="M122.44,108.43L122.43,108.41"/><path d="M122.33,108.18L122.28,108.08"/><path d="M122.03,107.82L122.09,107.86"/><path d="M121.75,107.66L121.72,107.65"/><path d="M124.84,110.79L123.64,110.97"/><path d="M122.98,110.10L122.98,110.29"/><path d="M122.98,110.49L122.98,110.30"/><path d="M135.20,110.37L162.04,110.51"/><path d="M158.15,104.93L158.17,105.22L158.24,105.75L158.32,105.97"/><path d="M158.37,99.88L158.29,100.16L158.20,100.90"/><path d="M158.44,98.47L158.56,98.75L158.65,99.45L158.72,100.51L158.76,101.81L158.80,106.02"/><path d="M158.76,101.81L162.00,101.83"/></g><g style="stroke:#000000;stroke-width:0.705"><path d="M119.27,111.22L79.81,111.02L78.80,110.07L78.84,96.99L78.96,95.92L80.60,95.93L81.34,96.91L81.45,98.25L81.42,108.04"/><path d="M90.54,100.51L90.51,99.81L90.43,98.84L90.34,98.24L90.23,98.06L86.99,98.04L86.87,98.32L86.78,99.02L86.71,100.09L86.67,101.40L86.60,106.03L86.60,107.25L85.77,108.07L81.26,108.04L80.45,107.22"/><path d="M81.25,106.05L80.63,105.37L80.65,98.86"/><path d="M158.80,106.02L89.89,105.64"/><path d="M90.61,104.55L90.62,105.65"/><path d="M90.26,105.59L90.19,105.32L90.12,104.74L90.07,103.93L90.05,102.95L90.04,101.94L90.07,100.98L90.11,100.20L90.17,99.68L90.24,99.46"/><path d="M124.84,110.79L123.11,110.49L122.98,110.49L122.98,110.29L119.73,110.27L119.73,110.48L119.59,110.48L117.86,110.75"/><path d="M120.25,108.66L120.25,108.82"/><path d="M120.28,108.97L120.33,109.15L120.35,109.18"/><path d="M120.57,109.49L120.53,109.46L120.41,109.27"/><path d="M120.62,109.53L120.82,109.69L120.87,109.70"/><path d="M120.27,108.42L120.27,108.44"/><path d="M121.23,109.81L121.17,109.81L120.91,109.72"/><path d="M121.26,109.81L121.54,109.81L121.60,109.79"/><path d="M121.63,109.78L121.89,109.69L121.93,109.65"/><path d="M121.99,109.61L122.18,109.47L122.21,109.42"/><path d="M122.27,109.33L122.38,109.16L122.39,109.11"/><path d="M122.47,108.76L122.47,108.80L122.43,108.97"/><path d="M122.44,108.43L122.45,108.55"/><path d="M123.43,111.24L134.02,111.30"/><path d="M158.06,100.90L158.10,100.20L158.20,99.24L158.32,98.64L158.44,98.47L161.65,98.49L161.78,98.77L161.89,99.47L161.96,100.53L162.00,101.83L162.05,106.44L162.04,110.51L161.09,111.43L136.99,111.31"/><path d="M157.96,104.93L157.94,106.02"/><path d="M158.32,105.97L158.40,105.87L158.49,105.44L158.56,104.74L158.61,103.84L158.63,102.83L158.63,101.84L158.60,100.96L158.54,100.30L158.46,99.93L158.37,99.88"/></g></g><g id="Actor_.12"><g style="stroke:#000000;stroke-width:0.353"><path d="M173.90,105.81L174.02,105.79L174.13,105.47L174.23,104.88L174.30,104.08L174.34,103.17L174.34,102.24L174.31,101.39L174.24,100.72L174.14,100.31L174.03,100.18"/><path d="M179.30,92.25L175.13,100.19L179.28,100.21L179.30,92.25L179.23,92.35L179.19,92.36"/><path d="M184.81,105.85L184.77,105.63L184.72,105.52L184.46,105.10L183.87,104.35L183.08,103.45L182.17,102.51L181.24,101.63L180.39,100.90L179.72,100.42L179.59,100.34L179.30,100.22L179.28,100.21"/></g><g style="stroke:#000000;stroke-width:0.705"><path d="M173.72,105.02L173.80,105.53L173.90,105.81L180.64,105.85"/><path d="M173.79,100.99L173.81,100.84L173.91,100.37L174.03,100.18L175.13,100.19"/><path d="M174.02,105.79L184.79,105.88L184.81,105.85L184.82,91.04L184.80,90.91L184.49,90.80L183.90,90.70L183.10,90.65L182.19,90.63L181.26,90.66L180.41,90.72L179.74,90.82L179.32,90.94L179.20,91.07L179.19,92.36L175.08,100.19"/><path d="M174.00,105.00L174.01,104.99L174.04,104.91"/><path d="M174.12,104.60L174.09,104.76L174.08,104.79"/><path d="M174.21,103.85L174.21,103.77L174.22,103.53"/><path d="M174.18,104.13L174.16,104.34L174.15,104.39"/><path d="M174.24,103.20L174.24,103.12L174.24,102.87"/><path d="M174.24,102.54L174.24,102.46L174.23,102.23"/><path d="M174.20,101.68L174.22,101.86L174.22,101.93"/><path d="M174.17,101.44L174.17,101.38L174.14,101.27"/><path d="M174.11,101.12L174.10,101.08L174.07,101.05"/></g></g><g id="Actor_.13"><g style="stroke:#000000;stroke-width:0.705"><path d="M184.04,90.73L184.23,2.77L184.10,2.55L183.78,2.36L183.28,2.22L182.66,2.16L182.00,2.17L181.35,2.26L180.80,2.41L180.41,2.61L180.21,2.83L180.02,90.78"/></g></g><g><g><path style="stroke:#000000;stroke-width:0.500" d="M186.22,232.01L183.11,232.01L127.25,283.93"/></g><g><path style="fill:#000000" d="M128.25,283.83L128.25,283.73L128.23,283.64L128.21,283.54L128.18,283.45L128.14,283.36L128.08,283.28L128.03,283.20L127.96,283.12L127.89,283.06L127.81,283.00L127.72,282.95L127.64,282.91L127.54,282.87L127.45,282.85L127.35,282.84L127.25,282.83L127.16,282.84L127.06,282.85L126.96,282.87L126.87,282.91L126.78,282.95L126.70,283.00L126.62,283.06L126.55,283.12L126.48,283.20L126.42,283.28L126.37,283.36L126.33,283.45L126.30,283.54L126.27,283.64L126.26,283.73L126.25,283.83L126.26,283.93L126.27,284.03L126.30,284.12L126.33,284.21L126.37,284.30L126.42,284.39L126.48,284.47L126.55,284.54L126.62,284.60L126.70,284.66L126.78,284.71L126.87,284.75L126.96,284.79L127.06,284.81L127.16,284.83L127.25,284.83L127.35,284.83L127.45,284.81L127.54,284.79L127.64,284.75L127.72,284.71L127.81,284.66L127.89,284.60L127.96,284.54L128.03,284.47L128.08,284.39L128.14,284.30L128.18,284.21L128.21,284.12L128.23,284.03L128.25,283.93z"/></g><g><path style="fill:#ffffa0" d="M186.18,235.06L196.11,235.06L196.11,228.85L186.18,228.85z"/><path style="stroke:#000000;stroke-width:0.500;stroke-opacity:0.98" d="M186.18,235.06L196.11,235.06L196.11,228.85L186.18,228.85z"/><text xml:space="preserve" fill="#000000" stroke-width="0" x="186.95" y="233.31" font-size="3.68" opacity="1.00" font-family="MS Shell Dlg">Base</text></g></g><g><g><path style="stroke:#000000;stroke-width:0.500" d="M169.07,192.71L165.96,192.71L126.43,218.65"/></g><g><path style="fill:#000000" d="M127.44,218.61L127.43,218.51L127.42,218.41L127.39,218.32L127.36,218.23L127.32,218.14L127.27,218.05L127.21,217.97L127.14,217.90L127.07,217.84L126.99,217.78L126.91,217.73L126.82,217.68L126.73,217.65L126.63,217.63L126.53,217.61L126.44,217.61L126.34,217.61L126.24,217.63L126.15,217.65L126.05,217.68L125.97,217.73L125.88,217.78L125.80,217.84L125.73,217.90L125.66,217.97L125.61,218.05L125.56,218.14L125.51,218.23L125.48,218.32L125.46,218.41L125.44,218.51L125.44,218.61L125.44,218.71L125.46,218.80L125.48,218.90L125.51,218.99L125.56,219.08L125.61,219.16L125.66,219.24L125.73,219.32L125.80,219.38L125.88,219.44L125.97,219.49L126.05,219.53L126.15,219.57L126.24,219.59L126.34,219.60L126.44,219.61L126.53,219.60L126.63,219.59L126.73,219.57L126.82,219.53L126.91,219.49L126.99,219.44L127.07,219.38L127.14,219.32L127.21,219.24L127.27,219.16L127.32,219.08L127.36,218.99L127.39,218.90L127.42,218.80L127.43,218.71z"/></g><g><path style="fill:#ffffa0" d="M169.05,195.79L214.93,195.79L214.93,189.58L169.05,189.58z"/><path style="stroke:#000000;stroke-width:0.500;stroke-opacity:0.98" d="M169.05,195.79L214.93,195.79L214.93,189.58L169.05,189.58z"/><text xml:space="preserve" fill="#000000" stroke-width="0" x="169.83" y="194.04" font-size="3.78" opacity="1.00" font-family="MS Shell Dlg">PVC_pipe_50mm_250mm</text></g></g><g><g><path style="stroke:#000000;stroke-width:0.500" d="M166.03,125.82L162.93,125.82L131.22,109.02"/></g><g><path style="fill:#000000" d="M132.22,109.04L132.22,108.94L132.20,108.84L132.18,108.75L132.15,108.65L132.10,108.56L132.05,108.48L132.00,108.40L131.93,108.33L131.86,108.26L131.78,108.20L131.69,108.15L131.61,108.11L131.51,108.08L131.42,108.05L131.32,108.04L131.22,108.04L131.12,108.04L131.03,108.05L130.93,108.08L130.84,108.11L130.75,108.15L130.67,108.20L130.59,108.26L130.52,108.33L130.45,108.40L130.39,108.48L130.34,108.56L130.30,108.65L130.27,108.75L130.24,108.84L130.23,108.94L130.22,109.04L130.23,109.13L130.24,109.23L130.27,109.33L130.30,109.42L130.34,109.51L130.39,109.59L130.45,109.67L130.52,109.74L130.59,109.81L130.67,109.87L130.75,109.92L130.84,109.96L130.93,109.99L131.03,110.02L131.12,110.03L131.22,110.04L131.32,110.03L131.42,110.02L131.51,109.99L131.61,109.96L131.69,109.92L131.78,109.87L131.86,109.81L131.93,109.74L132.00,109.67L132.05,109.59L132.10,109.51L132.15,109.42L132.18,109.33L132.20,109.23L132.22,109.13z"/></g><g><path style="fill:#ffffa0" d="M166.02,128.93L201.56,128.93L201.56,122.72L166.02,122.72z"/><path style="stroke:#000000;stroke-width:0.500;stroke-opacity:0.98" d="M166.02,128.93L201.56,128.93L201.56,122.72L166.02,122.72z"/><text xml:space="preserve" fill="#000000" stroke-width="0" x="166.79" y="127.19" font-size="3.77" opacity="1.00" font-family="MS Shell Dlg">Pendulum assembly</text></g></g><g><g><path style="stroke:#000000;stroke-width:0.500" d="M166.32,155.45L163.22,155.45L125.12,142.17"/></g><g><path style="fill:#000000" d="M126.13,142.17L126.12,142.07L126.11,141.98L126.08,141.88L126.05,141.79L126.01,141.70L125.96,141.62L125.90,141.54L125.84,141.47L125.76,141.40L125.68,141.34L125.60,141.29L125.51,141.25L125.42,141.22L125.32,141.19L125.23,141.18L125.13,141.17L125.03,141.18L124.93,141.19L124.84,141.22L124.75,141.25L124.66,141.29L124.57,141.34L124.49,141.40L124.42,141.47L124.35,141.54L124.30,141.62L124.25,141.70L124.20,141.79L124.17,141.88L124.15,141.98L124.13,142.07L124.13,142.17L124.13,142.27L124.15,142.37L124.17,142.46L124.20,142.56L124.25,142.64L124.30,142.73L124.35,142.81L124.42,142.88L124.49,142.95L124.57,143.00L124.66,143.05L124.75,143.10L124.84,143.13L124.93,143.15L125.03,143.17L125.13,143.17L125.23,143.17L125.32,143.15L125.42,143.13L125.51,143.10L125.60,143.05L125.68,143.00L125.76,142.95L125.84,142.88L125.90,142.81L125.96,142.73L126.01,142.64L126.05,142.56L126.08,142.46L126.11,142.37L126.12,142.27z"/></g><g><path style="fill:#ffffa0" d="M166.30,158.55L208.78,158.55L208.78,152.34L166.30,152.34z"/><path style="stroke:#000000;stroke-width:0.500;stroke-opacity:0.98" d="M166.30,158.55L208.78,158.55L208.78,152.34L166.30,152.34z"/><text xml:space="preserve" fill="#000000" stroke-width="0" x="167.08" y="156.81" font-size="3.78" opacity="1.00" font-family="MS Shell Dlg">Motor housing assembly</text></g></g><g/><g id="paperID" visibility="hidden" opacity="0.00" transform="scale(0.000100)"><path style="stroke:#000000;stroke-width:0.500;fill:#e6e6e6;fill-rule:evenodd" d="M-2000.00,-2000.00L2266.95,-2000.00L2266.95,2297.00L-2000.00,2297.00zM0.00,0.00L266.95,0.00L266.95,297.00L0.00,297.00z"/><path style="fill:#000000;fill-opacity:0.118" d="M3.00,297.00L266.95,297.00L266.95,3.00L269.95,3.00L269.95,300.00L3.00,300.00z"/></g><g id="hotspot.0" ident="" onmouseover="ShowHotSpot(evt,&apos;0&apos;)" onmouseout="HideHotSpot(evt,&apos;0&apos;)" onmousemove="ShowToolTip(evt,&apos;0&apos;,&quot;double_bearing_housing&quot;)" opacity="0"><path style="fill:#00ff00;fill-rule:evenodd" d="M81.25,96.80L81.47,98.31L81.40,108.02L85.95,107.92L86.56,107.26L86.79,99.42L86.95,98.06L90.11,98.04L90.36,98.30L90.27,104.45L90.55,104.67L90.75,105.48L98.91,105.65L157.77,106.00L157.94,104.90L158.51,104.71L158.49,101.13L158.20,100.91L158.23,98.88L158.44,98.58L161.58,98.55L161.83,98.80L162.05,103.13L162.07,110.55L161.46,111.20L124.68,111.21L123.56,110.96L124.45,110.70L122.91,110.45L119.54,110.45L118.00,110.70L119.15,110.96L79.73,110.95L78.97,110.19L78.95,96.12L80.72,96.06zM80.99,101.81L80.96,103.25L80.67,103.25L80.75,101.57zM122.43,108.43L122.44,109.02L121.83,109.72L120.87,109.72L120.35,109.21L120.36,108.25L120.78,107.65L121.92,107.65z"/></g><g id="ToolTip" visibility="hidden" opacity="0" transform="translate(0,0)"><rect id="ToolTipShadow" opacity="0.20" fill="black" stroke="none" x="0" y="0" width="30" height="8"/><rect id="ToolTipBG" fill="#ffffe1" stroke="black" x="0" y="0" width="30" height="8"/><text xml:space="preserve" id="ToolTipText" fill="black" x="0" y="0" width="30" height="8">tooltip</text></g></g></svg>