<?xml version="1.0" encoding="UTF-8" standalone="yes"?><svg xmlns="http://www.w3.org/2000/svg" xmlns:xlink="http://www.w3.org/1999/xlink" width="266.946mm" height="297.000mm" viewBox="0.000000 0.000000 266.946442 297.000000" stroke-linejoin="round" stroke-linecap="round" fill="none" fill-rule="evenodd"><desc>Composer Export</desc><script type="text/ecmascript"><![CDATA[
if(typeof(top) != "undefined")
{
	top.ShowPaper = ShowPaper;
}
function ShowHotSpot(evt,hotspotid)
{
	var svgDocument = evt.target.ownerDocument;
	var strId = "hotspot."+hotspotid;
	var hotspot = svgDocument.getElementById(strId);
	if(hotspot)
		hotspot.setAttribute("opacity",".5");
}
function HideHotSpot(evt,hotspotid)
{
	var svgDocument = evt.target.ownerDocument;
	var strId = "hotspot."+hotspotid;
	var hotspot = svgDocument.getElementById(strId);
	if(hotspot)
		hotspot.setAttribute("opacity","0");

	var toolTip = svgDocument.getElementById('ToolTip');
	if(toolTip)
		toolTip.setAttribute("visibility","hidden");
}
function ShowToolTip(evt,hotspotid,strTooltip)
{
	if(strTooltip=="")
	return;

	// change text
	var svgDocument = evt.target.ownerDocument;
	var tiptext = svgDocument.getElementById('ToolTipText');
	if( !tiptext )
	return;
	tiptext.firstChild.nodeValue = " " + strTooltip + "  " ;

	// show tooltip before, else some refresh issue

	var toolTip = svgDocument.getElementById('ToolTip');
	if(!toolTip)
	return;

	toolTip.setAttribute("visibility","visible");
	toolTip.setAttribute("opacity",".95");

	// move tooltip
	// get viewbox

	var root = svgDocument.documentElement;
	var vbox = (root.getAttribute("viewBox")).split(' ');
	var x0 = parseFloat(vbox[0]);
	var y0 = parseFloat(vbox[1]);
	var vboxW = parseFloat(vbox[2]);
	var vboxH = parseFloat(vbox[3]);

	// get default width of svg

	var strW = root.getAttribute("width");
	var svgW = parseFloat(strW);
	if(strW.indexOf('mm') != -1)
	svgW *= 3.779;

	var strH = root.getAttribute("height");
	var svgH = parseFloat(strH);
	if(strH.indexOf('mm') != -1)
	svgH *= 3.779;  	// 96 dpi  -> 96/25.4 = 3.779

	// update the viewbox / width / height if svg is embedded in html with zoom fit all
	var realx0 = x0;
	var realy0 = y0;
	var realvboxW = vboxW;
	var realvboxH = vboxH;
	var realsvgW = svgW;
	var realsvgH = svgH;

	if ((typeof(top) == "undefined") || (typeof(top.svgctl1) != "undefined")) // embedded in html
	{
		// get window size in pxl

		svgW = window.innerWidth;
		svgH = window.innerHeight;

		// calculate real viewbox

		realsvgW = svgW;
		realsvgH = svgH;
		if((svgW / svgH) > (vboxW / vboxH))
		{
			realvboxW = (vboxH * svgW) / svgH;
			realvboxH = vboxH;
			realx0 = x0 - (realvboxW - vboxW)/2 ;
		}
		else
		{
			realvboxH = (vboxW * svgH) / svgW;
			realvboxW = vboxW;
			realy0 = y0 - (realvboxH - vboxH)/2 ;
		}
	}

	// get user zoom/pan

	var newScale = root.currentScale;
	var translation = root.currentTranslate;

	// transform pxl to user unit

	var xPos = (((evt.clientX+10- translation.x)/newScale) * realvboxW)/realsvgW  + realx0 ;
	var yPos = (((evt.clientY+5- translation.y)/newScale) * realvboxH)/ realsvgH  + realy0 ;
	var scaleForWidth = ( (1 / newScale) * realvboxH) / realsvgH;

	// move tooltip

	toolTip.setAttribute("transform", "translate(" + xPos + "," + yPos + ")" );

	// resize tooltip

	var fontsize = 12;
	tiptext.setAttribute("font-size",fontsize*scaleForWidth);
	tiptext.setAttribute("y", fontsize*scaleForWidth);
	var tipBG = svgDocument.getElementById('ToolTipBG');
	var outline = tiptext.getBBox();
	if(tipBG)
	{
		tipBG.setAttribute("stroke-width", 1*scaleForWidth);
		tipBG.setAttribute("width", Number(outline.width) );
		tipBG.setAttribute("height", Number(outline.height) + fontsize*.5*scaleForWidth );
	}
	var ToolTipShadow = svgDocument.getElementById('ToolTipShadow');
	if(ToolTipShadow)
	{
		ToolTipShadow.setAttribute("width", Number(outline.width) );
		ToolTipShadow.setAttribute("height", Number(outline.height) + fontsize*.5*scaleForWidth );
		ToolTipShadow.setAttribute("x", 3*scaleForWidth);
		ToolTipShadow.setAttribute("y", 3*scaleForWidth);
	}
}
function ShowPaper()
{
  var svgDocument = getDocument();
  var paper = svgDocument.getElementById("paperID");
  if(paper)
  {
    paper.setAttribute("transform","scale(1)");
    paper.setAttribute("opacity","1");
    paper.setAttribute("visibility","visible");
  }
  var svg = svgDocument.getRootElement();
  if(svg)
  {
    svg.setAttribute("width","276.946mm");
    svg.setAttribute("height","307.000mm");
    svg.setAttribute("viewBox","-5.000000 -5.000000 276.946442 307.000000");
  }
}
]]></script><defs/><g><g id="Actor_.0"><g style="stroke:#000000;stroke-width:0.353"><path d="M95.67,138.16L96.24,138.73L97.48,139.27L99.33,139.73L101.69,140.10L104.32,140.35L104.43,140.36L107.40,140.48L110.44,140.46L113.38,140.31L116.05,140.03L118.30,139.64L120.03,139.16L121.12,138.61L121.54,138.03"/></g><g style="stroke:#000000;stroke-width:0.705"><path d="M119.86,136.77L120.29,136.90L121.25,137.45L121.54,138.03L121.48,161.37L121.07,162.01L119.98,162.61L118.27,163.14L116.02,163.57L113.36,163.88L110.46,164.05L107.41,164.07L104.45,163.93L101.72,163.66L99.37,163.25L97.53,162.74L96.29,162.15L95.73,161.52L95.67,138.16L95.80,137.58L96.62,137.02L97.28,136.79"/></g></g><g id="Actor_.1"><g style="stroke:#000000;stroke-width:0.353"><path d="M100.52,136.06L100.48,136.15L100.29,136.22L99.99,136.28L99.60,136.32L99.17,136.33L98.75,136.32L98.37,136.28L98.19,136.24L98.09,136.22L97.92,136.14L97.90,136.05"/><path d="M98.14,135.84L98.36,135.78L98.68,135.74L99.04,135.72L99.43,135.72L99.79,135.74L100.09,135.79L100.29,135.85L100.38,135.92L100.34,136.00L100.17,136.07L99.91,136.12L99.56,136.15L99.18,136.17L98.80,136.15L98.46,136.12L98.21,136.06L98.06,135.99L98.04,135.92L98.14,135.84"/><path d="M98.53,135.97L98.72,135.84L98.72,136.01"/><path d="M98.72,135.84L99.40,135.81L99.88,135.90"/><path d="M99.40,135.81L99.40,136.05"/></g><g style="stroke:#000000;stroke-width:0.705"><path d="M97.90,137.32L97.90,136.05L97.90,136.01L97.92,135.97L97.96,135.94L98.07,135.86L98.10,135.85L98.33,135.78L98.66,135.74L99.04,135.71L99.44,135.72L99.81,135.74L100.12,135.79L100.33,135.86L100.37,135.87L100.46,135.95L100.50,135.98L100.52,136.02L100.52,136.06L100.53,137.33L100.48,137.42L100.30,137.49L99.99,137.55L99.61,137.59L99.18,137.60L98.75,137.59L98.37,137.55L98.09,137.49L97.92,137.41L97.90,137.32"/><path d="M99.88,135.91L99.69,136.03L99.02,136.07L98.53,135.97"/></g></g><g id="Actor_.2"><g style="stroke:#000000;stroke-width:0.705"><path d="M96.70,162.35L96.90,251.95"/><path d="M120.48,162.33L120.31,251.86"/></g></g><g id="Actor_.3"><g style="stroke:#000000;stroke-width:0.353"><path d="M125.89,268.82L125.38,269.84L124.21,270.82L122.43,271.72L120.10,272.49L117.32,273.11L114.19,273.56L110.84,273.80L107.40,273.84L104.00,273.67L100.79,273.30L97.89,272.75L95.42,272.03L93.47,271.17L92.11,270.22L91.40,269.21L91.35,268.17"/><path d="M96.03,270.82L95.95,270.75L95.79,270.68L95.57,270.63L95.31,270.61L95.04,270.62L94.79,270.65L94.58,270.71L94.45,270.78L94.39,270.86"/><path d="M95.54,267.44L95.04,268.36L95.22,269.28L96.08,270.17L97.58,270.98L99.63,271.67L102.15,272.20L105.01,272.54L108.05,272.68L111.11,272.61L114.05,272.32L116.71,271.85L118.95,271.20L120.66,270.42L121.75,269.55L122.18,268.63L121.93,267.71L121.25,267.05"/><path d="M121.25,267.73L120.85,268.58L119.83,269.39L118.23,270.11L116.15,270.71L113.68,271.15L111.16,271.40L110.94,271.42L108.09,271.49L105.26,271.36L102.60,271.04L100.25,270.55L98.34,269.91L96.95,269.16L96.15,268.33L95.97,267.47"/><path d="M95.98,251.60L96.03,252.45L96.75,253.28L98.12,254.04L100.07,254.69L102.49,255.19L105.25,255.51L108.19,255.63L111.15,255.55L113.98,255.28L116.51,254.81L118.59,254.20L120.13,253.46L121.05,252.64L121.28,251.78"/><path d="M96.90,252.26L96.93,252.01"/><path d="M117.13,272.54L117.04,272.46L116.88,272.39L116.65,272.35L116.39,272.32L116.12,272.33L115.87,272.36L115.67,272.42L115.54,272.49L115.49,272.58"/><path d="M122.62,266.11L122.54,266.04L122.38,265.97L122.15,265.93L121.90,265.91L121.63,265.91L121.38,265.95L121.25,265.98"/></g><g style="stroke:#000000;stroke-width:0.705"><path d="M121.26,264.95L121.54,265.03L123.52,265.85L124.94,266.78L125.75,267.78L125.89,268.82L125.89,270.16L125.37,271.19L124.20,272.17L122.43,273.07L120.10,273.85L117.32,274.47L114.19,274.91L112.51,275.04L110.84,275.16L107.40,275.20L104.00,275.03L100.79,274.66L97.90,274.10L95.42,273.38L93.47,272.52L92.12,271.57L91.40,270.55L91.35,269.51L91.35,268.17L91.96,267.15L93.20,266.19L95.03,265.32L95.97,265.02"/><path d="M94.39,270.86L94.43,270.94L94.55,271.02L94.75,271.07L94.99,271.11L95.26,271.12L95.52,271.10L95.76,271.05L95.93,270.99L96.02,270.91L96.03,270.82"/><path d="M95.54,267.44L95.97,267.04"/><path d="M95.97,267.47L95.98,251.60L96.62,250.76L96.90,250.59"/><path d="M97.20,252.67L96.90,252.26"/><path d="M97.31,252.83L97.49,253.07L98.10,253.43"/><path d="M99.63,254.12L98.73,253.81L98.36,253.59"/><path d="M100.01,254.26L100.55,254.44L101.69,254.68"/><path d="M104.16,255.08L102.85,254.93L102.17,254.79"/><path d="M106.90,255.30L105.50,255.24L104.71,255.15"/><path d="M109.74,255.31L108.33,255.36L107.49,255.32"/><path d="M112.51,255.13L111.17,255.27L110.33,255.29"/><path d="M113.07,255.07L113.87,254.98L115.05,254.75"/><path d="M117.13,272.54L117.13,272.62L117.04,272.70L116.87,272.77L116.64,272.81L116.37,272.83L116.10,272.82L115.85,272.79L115.66,272.73L115.53,272.66L115.49,272.58"/><path d="M115.54,254.66L116.24,254.52L117.20,254.21"/><path d="M117.60,254.09L118.17,253.90L118.85,253.54"/><path d="M119.89,252.78L119.53,253.17L119.13,253.39"/><path d="M120.04,252.61L120.25,252.37L120.27,251.96"/><path d="M121.25,267.73L121.28,251.78L120.84,250.94L120.31,250.56"/><path d="M121.25,266.32L121.38,266.36L121.62,266.39L121.89,266.40L122.15,266.38L122.37,266.34L122.54,266.27L122.62,266.20L122.62,266.11"/></g></g><g id="Actor_.4"><g style="stroke:#000000;stroke-width:0.353"><path d="M114.13,136.91L114.16,136.99L114.33,137.07L114.55,137.12L114.63,137.13L115.01,137.17L115.44,137.19L115.87,137.18L116.25,137.14L116.55,137.08L116.73,137.00L116.77,136.92"/><path d="M114.38,136.70L114.59,136.63L114.90,136.59L115.27,136.57L115.66,136.57L116.02,136.59L116.33,136.64L116.53,136.70L116.63,136.78L116.59,136.85L116.43,136.92L116.16,136.97L115.82,137.01L115.44,137.02L115.05,137.01L114.72,136.97L114.46,136.91L114.31,136.84L114.28,136.77L114.38,136.70"/><path d="M114.77,136.83L114.95,136.70L114.95,136.86"/><path d="M114.95,136.70L115.63,136.66L116.13,136.76"/><path d="M115.63,136.66L115.63,136.90"/></g><g style="stroke:#000000;stroke-width:0.705"><path d="M114.33,138.34L114.62,138.41L115.00,138.45L115.43,138.46L115.57,138.46L115.86,138.45L116.25,138.41L116.55,138.35L116.73,138.27L116.77,138.19L116.77,136.92L116.76,136.87L116.74,136.83L116.71,136.80L116.61,136.72L116.58,136.71L116.36,136.64L116.04,136.59L115.67,136.57L115.26,136.57L114.88,136.59L114.56,136.64L114.34,136.70L114.30,136.72L114.19,136.79L114.16,136.82L114.14,136.86L114.13,136.91L114.13,138.18L114.16,138.26L114.33,138.34"/><path d="M116.13,136.76L115.95,136.89L115.57,136.91L115.27,136.92L114.77,136.83"/></g></g><g id="Actor_.5"><g style="stroke:#000000;stroke-width:0.353"><path d="M97.24,136.84L97.53,137.39L98.52,137.90L100.15,138.36L102.32,138.72L104.90,138.97L107.71,139.08L110.58,139.05L113.32,138.89L115.76,138.59L117.73,138.19L119.12,137.71L119.84,137.18L119.86,136.63"/><path d="M114.13,137.73L113.10,137.96L111.15,138.17L108.94,138.26L106.70,138.22L104.64,138.04L102.98,137.74L101.87,137.36L101.43,136.94"/><path d="M101.62,133.64L101.87,133.87L102.98,134.24L104.64,134.53L106.70,134.71L108.94,134.76L111.15,134.67L113.11,134.45L113.93,134.28"/></g><g style="stroke:#000000;stroke-width:0.705"><path d="M97.90,136.19L97.66,136.30L97.24,136.84L97.24,137.92L97.53,138.47L98.52,138.99L100.15,139.44L102.32,139.81L104.90,140.05L107.71,140.17L108.42,140.16L110.58,140.14L113.32,139.97L115.75,139.68L117.73,139.28L119.12,138.79L119.84,138.26L119.85,137.71L119.86,136.63L119.16,136.10L117.81,135.62L115.89,135.22L115.75,135.20"/><path d="M99.07,135.71L100.48,135.36L101.42,135.21"/><path d="M101.43,136.94L101.42,133.63"/><path d="M115.75,134.38L115.75,136.57"/></g></g><g id="Actor_.6"><g style="stroke:#000000;stroke-width:0.705"><path d="M68.39,119.04L68.35,119.04"/><path d="M150.24,127.88L72.36,123.97"/><path d="M150.60,123.08L72.61,119.25"/><path d="M169.34,128.84L154.65,128.10"/><path d="M169.59,124.02L154.90,123.29"/></g></g><g id="Actor_.7"><g style="stroke:#000000;stroke-width:0.353"><path d="M106.29,132.78L106.60,133.01L106.96,133.13L107.33,133.13L107.33,133.13L107.68,133.00L107.96,132.77L108.14,132.44L108.21,132.08L108.21,132.07L108.16,131.69L107.99,131.35L107.72,131.07L107.38,130.89L107.01,130.83L106.64,130.90L106.32,131.08L106.32,131.09L106.09,131.37L105.96,131.72L105.95,132.10L105.95,132.10L106.07,132.47L106.29,132.78"/><path d="M107.45,130.73L107.04,130.66L106.63,130.74L106.27,130.95"/><path d="M106.54,131.54L106.45,132.22L106.62,132.11L106.70,131.49"/><path d="M107.61,132.44L106.99,132.67L107.15,132.55L106.62,132.11"/><path d="M106.99,132.67L106.45,132.22"/><path d="M107.62,132.38L107.15,132.55"/><path d="M107.22,131.36L107.33,131.81L106.73,131.56L106.67,131.74L106.66,131.77L106.66,131.93L106.72,132.12L106.84,132.28L106.88,132.33L106.99,132.40L107.18,132.46L107.37,132.46L107.46,132.44L107.55,132.40L107.62,132.33"/><path d="M106.99,132.40L107.33,131.81L107.68,131.93"/><path d="M106.73,131.56L106.83,131.44"/><path d="M107.33,131.81L107.68,131.89"/><path d="M108.39,132.07L108.31,132.47L108.10,132.83L107.79,133.10"/><path d="M107.84,130.94L108.08,131.18"/><path d="M108.15,131.26L108.30,131.56"/><path d="M108.38,132.01L108.33,131.65"/><path d="M107.78,130.90L107.45,130.73"/></g><g style="stroke:#000000;stroke-width:0.705"><path d="M107.80,133.10L107.79,133.10L107.40,133.24L107.39,133.24L106.97,133.25L106.57,133.11L106.22,132.86L106.04,132.59L105.97,132.50L105.85,132.09L105.86,131.67L106.00,131.28L106.01,131.26L106.27,130.95L106.28,130.94"/><path d="M106.54,131.54L107.16,131.31L107.70,131.76L107.61,132.44"/></g></g><g id="Actor_.8"><g style="stroke:#000000;stroke-width:0.353"><path d="M67.97,124.68L67.73,124.47L67.49,123.88L67.32,123.02L67.26,121.99L67.31,120.89L67.45,119.85L67.69,118.98L67.98,118.38L68.30,118.10"/><path d="M68.29,119.05L68.30,119.05"/></g><g style="stroke:#000000;stroke-width:0.705"><path d="M67.97,124.72L63.49,124.49L63.18,124.24L62.94,123.65L62.77,122.79L62.71,121.76L62.75,120.67L62.90,119.63L63.14,118.76L63.44,118.15L63.76,117.88L68.30,118.10L68.59,118.18"/><path d="M67.69,123.09L67.70,123.17L67.77,123.33"/><path d="M67.86,123.54L67.88,123.59L67.96,123.66"/><path d="M67.58,122.47L67.59,122.56L67.63,122.79"/><path d="M67.55,121.72L67.54,121.82L67.56,122.10"/><path d="M67.59,120.95L67.58,121.04L67.56,121.34"/><path d="M67.70,120.22L67.68,120.30L67.64,120.58"/><path d="M67.79,119.91L67.85,119.68L67.87,119.62"/><path d="M67.98,119.41L68.06,119.24L68.09,119.22"/><path d="M68.27,119.06L68.29,119.05"/></g></g><g id="Actor_.9"><g style="stroke:#000000;stroke-width:0.353"><path d="M61.64,120.37L62.44,120.41L62.45,122.28"/><path d="M62.44,120.41L62.82,120.19"/></g><g style="stroke:#000000;stroke-width:0.705"><path d="M62.73,122.12L62.45,122.28L61.66,122.24"/><path d="M62.85,119.99L62.24,119.96L61.64,120.30"/><path d="M62.86,123.99L62.86,123.99L62.88,123.92L62.86,123.99"/><path d="M62.85,124.28L62.85,124.22L62.86,123.99"/><path d="M62.88,123.92L62.90,123.78L62.94,123.66"/><path d="M63.02,118.91L63.00,118.92L62.97,118.98L62.94,119.06L62.92,119.17L62.91,119.29L62.92,119.40L62.93,119.50L62.94,119.51"/><path d="M62.95,119.28L62.95,119.35L62.95,119.28L62.96,119.20L62.97,119.13L62.99,119.07L63.01,119.03L63.02,119.02"/><path d="M62.95,119.35L62.96,119.41"/><path d="M62.88,117.34L62.94,117.41L63.01,117.41L63.01,117.41"/></g></g><g id="Actor_.10"><g style="stroke:#000000;stroke-width:0.705"><path d="M72.98,124.00L72.88,124.32"/><path d="M72.62,124.82L72.83,124.45"/><path d="M72.98,118.54L73.18,119.11"/><path d="M73.21,119.28L73.21,119.27"/></g></g><g id="Actor_.11"><g style="stroke:#000000;stroke-width:0.353"><path d="M59.14,116.45L60.96,116.54L61.06,128.26L61.98,129.24L66.99,129.50"/><path d="M59.56,114.80L61.38,114.89L64.09,113.37"/><path d="M61.06,128.26L64.62,126.15"/><path d="M60.96,116.54L61.38,114.89"/><path d="M61.98,129.24L65.53,127.12"/><path d="M63.48,124.49L61.69,125.54"/><path d="M63.06,124.16L63.15,124.16"/><path d="M63.91,117.89L63.90,116.76"/><path d="M67.89,127.21L153.89,131.59L153.85,136.35"/><path d="M68.08,121.67L71.73,121.85L71.56,126.91L150.12,130.91"/><path d="M71.56,126.91L74.98,124.83"/><path d="M71.73,121.85L71.86,120.20L72.14,118.70L72.52,117.49L72.98,116.71L73.46,116.43"/><path d="M73.92,124.05L73.61,124.80L73.28,125.19L72.93,125.21"/><path d="M73.40,118.06L73.73,118.25L74.01,118.81L74.12,119.32"/><path d="M105.16,133.59L105.16,133.83"/><path d="M106.39,133.65L106.19,133.55L105.73,133.17L105.42,132.66L105.28,132.09L105.33,131.51L105.56,130.99L105.94,130.58L106.45,130.33L107.01,130.26L107.58,130.39L108.08,130.69L108.47,131.14L108.70,131.69L108.75,132.27L108.61,132.83L108.29,133.30L107.84,133.63L107.64,133.72"/><path d="M106.10,131.15L106.07,131.19"/><path d="M106.35,130.88L106.32,130.92"/><path d="M107.75,133.12L107.70,133.13"/><path d="M150.32,125.76L154.11,125.95L153.89,131.59"/><path d="M154.11,125.95L154.23,124.27L154.46,122.74L154.77,121.51L155.14,120.71L155.52,120.42"/><path d="M155.13,129.12L155.38,128.92L155.62,128.37L155.67,128.15"/><path d="M155.56,122.39L155.77,122.74L155.91,123.34"/></g><g style="stroke:#000000;stroke-width:0.705"><path d="M105.48,133.61L105.16,133.83L59.27,131.44L59.14,116.45L59.56,114.80L62.28,113.29L64.09,113.37L64.53,114.53L64.55,117.92"/><path d="M61.69,125.54L61.63,118.05L63.90,116.76"/><path d="M63.06,123.94L63.06,124.16L61.68,124.97"/><path d="M63.02,119.19L63.01,117.27"/><path d="M64.61,124.55L64.62,126.15L65.53,127.12L67.89,127.24"/><path d="M66.99,129.50L67.90,128.61L67.89,127.21L68.08,121.67L68.21,120.02L68.48,118.52L68.87,117.32L69.33,116.54L69.82,116.26L73.46,116.43L73.92,116.68L74.32,117.42L74.60,118.58L74.68,119.35"/><path d="M73.40,118.06L73.06,118.27L72.73,118.84L72.46,119.72L72.28,120.85L72.20,121.99L72.24,123.14L72.39,124.12L72.63,124.84L72.93,125.21"/><path d="M150.21,128.62L74.98,124.83L74.95,124.10"/><path d="M105.16,133.59L108.87,133.78L108.87,134.02L153.85,136.35L156.55,134.12L156.59,129.40L156.56,128.20"/><path d="M106.35,130.88L106.54,130.79"/><path d="M107.10,130.65L107.52,130.74L107.90,130.97L108.19,131.31L108.36,131.71L108.39,132.15L108.29,132.57"/><path d="M107.04,130.66L106.72,130.70L106.69,130.71"/><path d="M108.10,132.83L108.08,132.87L107.91,133.00"/><path d="M107.75,133.12L107.76,133.11"/><path d="M108.19,132.70L108.29,132.55"/><path d="M150.12,130.91L150.32,125.76L150.44,124.08L150.68,122.55L150.99,121.32L151.36,120.53L151.74,120.24L155.52,120.42L155.87,120.66L156.16,121.41L156.37,122.59L156.42,123.37"/><path d="M155.13,129.12L154.90,128.95L154.71,128.44L154.58,127.63L154.52,126.61L154.55,125.50L154.66,124.41L154.84,123.47L155.06,122.78L155.31,122.40L155.56,122.39"/><path d="M154.73,128.11L154.69,128.30"/><path d="M154.97,123.30L154.94,123.16"/></g></g><g id="Actor_.12"><g style="stroke:#000000;stroke-width:0.353"><path d="M171.16,123.30L176.09,123.55"/><path d="M176.09,123.57L176.16,123.96L176.23,124.13L176.71,125.00L177.49,126.08L178.49,127.25L179.59,128.39L180.68,129.37L181.63,130.09L182.20,130.40L182.35,130.46L182.68,130.49"/><path d="M183.03,112.52L182.98,112.72L182.58,112.89L181.85,113.03L180.89,113.12L179.79,113.15L178.67,113.12L177.65,113.02L176.86,112.87L176.36,112.69L176.23,112.50"/><path d="M177.20,112.52L177.22,112.50"/></g><g style="stroke:#000000;stroke-width:0.705"><path d="M171.26,123.13L170.16,123.08L169.93,123.18L169.69,123.64L169.49,124.41L169.33,125.40L169.24,126.51L169.23,127.61L169.30,128.59L169.43,129.33L169.63,129.77L169.85,129.84L182.68,130.49L182.75,130.45L182.82,130.19L182.89,122.90L182.88,123.29"/><path d="M171.16,123.30L176.21,114.05"/><path d="M176.09,123.57L176.23,112.50L176.46,112.31L177.03,112.15L177.22,112.13"/><path d="M177.56,112.75L177.65,112.78L177.80,112.81"/><path d="M177.28,112.62L177.30,112.66L177.39,112.69"/><path d="M177.22,112.54L177.20,112.52"/><path d="M178.40,112.91L178.22,112.89L178.08,112.86"/><path d="M178.76,112.94L178.95,112.96L179.15,112.96"/><path d="M179.54,112.98L179.74,112.98L179.94,112.98"/><path d="M180.33,112.97L180.53,112.96L180.70,112.95"/><path d="M181.61,112.82L181.74,112.80L181.81,112.77"/><path d="M181.05,112.91L181.22,112.90L181.35,112.87"/><path d="M182.98,112.72L182.89,122.90L183.03,112.52L182.70,112.34L182.08,112.18"/></g></g><g id="Actor_.13"><g style="stroke:#000000;stroke-width:0.353"><path d="M178.53,4.83L178.76,4.90L179.24,4.96L179.90,5.00L180.01,5.00L180.69,5.02L181.51,5.03L182.27,5.01L182.90,4.97L183.31,4.92L183.43,4.89L183.48,4.85"/><path d="M179.02,4.83L179.05,4.78L179.28,4.73L179.70,4.70L180.01,4.68L180.26,4.67L180.90,4.67L181.55,4.68L182.14,4.71L182.61,4.75L182.90,4.80L182.98,4.85"/></g><g style="stroke:#000000;stroke-width:0.705"><path d="M182.08,112.60L183.48,4.85L183.37,4.79L183.01,4.73L182.06,4.66L180.88,4.63L180.01,4.64L179.38,4.66L178.85,4.71L178.56,4.77L178.53,4.83L177.22,112.59"/><path d="M179.02,4.83L179.21,4.88L179.59,4.93L180.12,4.97L181.03,4.99L182.02,4.97L182.52,4.94L182.85,4.90L182.98,4.85"/></g></g><g/><g id="paperID" visibility="hidden" opacity="0.00" transform="scale(0.000100)"><path style="stroke:#000000;stroke-width:0.500;fill:#e6e6e6;fill-rule:evenodd" d="M-2000.00,-2000.00L2266.95,-2000.00L2266.95,2297.00L-2000.00,2297.00zM0.00,0.00L266.95,0.00L266.95,297.00L0.00,297.00z"/><path style="fill:#000000;fill-opacity:0.118" d="M3.00,297.00L266.95,297.00L266.95,3.00L269.95,3.00L269.95,300.00L3.00,300.00z"/></g><g id="ToolTip" visibility="hidden" opacity="0" transform="translate(0,0)"><rect id="ToolTipShadow" opacity="0.20" fill="black" stroke="none" x="0" y="0" width="30" height="8"/><rect id="ToolTipBG" fill="#ffffe1" stroke="black" x="0" y="0" width="30" height="8"/><text xml:space="preserve" id="ToolTipText" fill="black" x="0" y="0" width="30" height="8">tooltip</text></g></g></svg>