<?xml version="1.0" encoding="UTF-8" standalone="yes"?><svg xmlns="http://www.w3.org/2000/svg" xmlns:xlink="http://www.w3.org/1999/xlink" width="266.946mm" height="297.000mm" viewBox="0.000000 0.000000 266.946442 297.000000" stroke-linejoin="round" stroke-linecap="round" fill="none" fill-rule="evenodd"><desc>Composer Export</desc><script type="text/ecmascript"><![CDATA[
if(typeof(top) != "undefined")
{
	top.ShowPaper = ShowPaper;
}
function ShowHotSpot(evt,hotspotid)
{
	var svgDocument = evt.target.ownerDocument;
	var strId = "hotspot."+hotspotid;
	var hotspot = svgDocument.getElementById(strId);
	if(hotspot)
		hotspot.setAttribute("opacity",".5");
}
function HideHotSpot(evt,hotspotid)
{
	var svgDocument = evt.target.ownerDocument;
	var strId = "hotspot."+hotspotid;
	var hotspot = svgDocument.getElementById(strId);
	if(hotspot)
		hotspot.setAttribute("opacity","0");

	var toolTip = svgDocument.getElementById('ToolTip');
	if(toolTip)
		toolTip.setAttribute("visibility","hidden");
}
function ShowToolTip(evt,hotspotid,strTooltip)
{
	if(strTooltip=="")
	return;

	// change text
	var svgDocument = evt.target.ownerDocument;
	var tiptext = svgDocument.getElementById('ToolTipText');
	if( !tiptext )
	return;
	tiptext.firstChild.nodeValue = " " + strTooltip + "  " ;

	// show tooltip before, else some refresh issue

	var toolTip = svgDocument.getElementById('ToolTip');
	if(!toolTip)
	return;

	toolTip.setAttribute("visibility","visible");
	toolTip.setAttribute("opacity",".95");

	// move tooltip
	// get viewbox

	var root = svgDocument.documentElement;
	var vbox = (root.getAttribute("viewBox")).split(' ');
	var x0 = parseFloat(vbox[0]);
	var y0 = parseFloat(vbox[1]);
	var vboxW = parseFloat(vbox[2]);
	var vboxH = parseFloat(vbox[3]);

	// get default width of svg

	var strW = root.getAttribute("width");
	var svgW = parseFloat(strW);
	if(strW.indexOf('mm') != -1)
	svgW *= 3.779;

	var strH = root.getAttribute("height");
	var svgH = parseFloat(strH);
	if(strH.indexOf('mm') != -1)
	svgH *= 3.779;  	// 96 dpi  -> 96/25.4 = 3.779

	// update the viewbox / width / height if svg is embedded in html with zoom fit all
	var realx0 = x0;
	var realy0 = y0;
	var realvboxW = vboxW;
	var realvboxH = vboxH;
	var realsvgW = svgW;
	var realsvgH = svgH;

	if ((typeof(top) == "undefined") || (typeof(top.svgctl1) != "undefined")) // embedded in html
	{
		// get window size in pxl

		svgW = window.innerWidth;
		svgH = window.innerHeight;

		// calculate real viewbox

		realsvgW = svgW;
		realsvgH = svgH;
		if((svgW / svgH) > (vboxW / vboxH))
		{
			realvboxW = (vboxH * svgW) / svgH;
			realvboxH = vboxH;
			realx0 = x0 - (realvboxW - vboxW)/2 ;
		}
		else
		{
			realvboxH = (vboxW * svgH) / svgW;
			realvboxW = vboxW;
			realy0 = y0 - (realvboxH - vboxH)/2 ;
		}
	}

	// get user zoom/pan

	var newScale = root.currentScale;
	var translation = root.currentTranslate;

	// transform pxl to user unit

	var xPos = (((evt.clientX+10- translation.x)/newScale) * realvboxW)/realsvgW  + realx0 ;
	var yPos = (((evt.clientY+5- translation.y)/newScale) * realvboxH)/ realsvgH  + realy0 ;
	var scaleForWidth = ( (1 / newScale) * realvboxH) / realsvgH;

	// move tooltip

	toolTip.setAttribute("transform", "translate(" + xPos + "," + yPos + ")" );

	// resize tooltip

	var fontsize = 12;
	tiptext.setAttribute("font-size",fontsize*scaleForWidth);
	tiptext.setAttribute("y", fontsize*scaleForWidth);
	var tipBG = svgDocument.getElementById('ToolTipBG');
	var outline = tiptext.getBBox();
	if(tipBG)
	{
		tipBG.setAttribute("stroke-width", 1*scaleForWidth);
		tipBG.setAttribute("width", Number(outline.width) );
		tipBG.setAttribute("height", Number(outline.height) + fontsize*.5*scaleForWidth );
	}
	var ToolTipShadow = svgDocument.getElementById('ToolTipShadow');
	if(ToolTipShadow)
	{
		ToolTipShadow.setAttribute("width", Number(outline.width) );
		ToolTipShadow.setAttribute("height", Number(outline.height) + fontsize*.5*scaleForWidth );
		ToolTipShadow.setAttribute("x", 3*scaleForWidth);
		ToolTipShadow.setAttribute("y", 3*scaleForWidth);
	}
}
function ShowPaper()
{
  var svgDocument = getDocument();
  var paper = svgDocument.getElementById("paperID");
  if(paper)
  {
    paper.setAttribute("transform","scale(1)");
    paper.setAttribute("opacity","1");
    paper.setAttribute("visibility","visible");
  }
  var svg = svgDocument.getRootElement();
  if(svg)
  {
    svg.setAttribute("width","276.946mm");
    svg.setAttribute("height","307.000mm");
    svg.setAttribute("viewBox","-5.000000 -5.000000 276.946442 307.000000");
  }
}
]]></script><defs/><g><g id="Actor_.0"><g style="stroke:#000000;stroke-width:0.353"><path d="M117.03,169.26L117.38,174.57L117.26,174.66L116.37,175.11L115.12,175.47L113.66,175.69L112.14,175.76L111.87,175.75L111.46,169.85"/></g><g style="stroke:#000000;stroke-width:0.705"><path d="M108.58,174.56L108.89,178.89L109.16,179.36L109.91,179.75L111.04,180.01L112.44,180.11L113.95,180.05L115.41,179.82L116.65,179.46L117.55,179.00L117.99,178.49L117.71,174.16L117.38,174.57L111.87,175.75L110.74,175.66L109.60,175.40L109.00,175.13L108.86,175.02L108.58,174.56L108.26,169.83"/><path d="M117.71,174.16L117.39,169.19"/></g></g><g id="Actor_.1"><g style="stroke:#000000;stroke-width:0.353"><path d="M123.64,143.38L123.01,144.20L121.73,145.01L119.86,145.76L117.49,146.40L114.76,146.90L111.81,147.22L108.83,147.36L105.98,147.30L103.41,147.04L101.28,146.61L99.70,146.02L98.75,145.32L98.48,144.54"/></g><g style="stroke:#000000;stroke-width:0.705"><path d="M125.00,165.36L125.01,165.55L124.39,166.46L123.13,167.36L121.28,168.18L118.95,168.88L116.25,169.42L113.34,169.76L110.39,169.89L107.57,169.80L105.03,169.50L102.92,169.00L101.35,168.33L100.40,167.53L100.12,166.66L98.48,144.54L98.88,143.72L99.94,142.91L100.35,142.72"/><path d="M121.63,141.29L122.86,141.86L123.59,142.58L123.64,143.38L124.91,163.97"/></g></g><g id="Actor_.2"><g style="stroke:#000000;stroke-width:0.353"><path d="M100.34,142.67L100.47,142.77L100.71,142.84L101.06,142.89L101.47,142.89L101.89,142.86L102.28,142.79L102.61,142.69L102.82,142.58L102.90,142.46"/><path d="M100.94,142.48L101.18,142.29L101.20,142.55"/><path d="M101.11,142.71L101.47,142.72L101.85,142.69L102.20,142.63L102.49,142.54L102.68,142.44L102.75,142.34L102.71,142.24L102.54,142.16L102.27,142.11L101.93,142.08L101.56,142.10L101.26,142.13L101.19,142.14L100.87,142.22L100.62,142.31L100.49,142.41L100.47,142.52L100.58,142.61L100.80,142.68L101.11,142.71"/><path d="M101.18,142.29L101.85,142.21L101.88,142.53"/><path d="M101.85,142.21L102.28,142.33"/></g><g style="stroke:#000000;stroke-width:0.705"><path d="M101.11,144.10L100.80,144.06L100.56,143.98L100.43,143.88L100.34,142.67L100.35,142.62L100.36,142.51L100.38,142.47L100.41,142.44L100.55,142.33L100.59,142.31L100.84,142.22L101.17,142.14L101.56,142.09L101.94,142.08L102.29,142.10L102.57,142.16L102.61,142.17L102.79,142.25L102.82,142.28L102.84,142.31L102.89,142.42L102.90,142.46L102.99,143.68L102.91,143.79L102.69,143.91L102.37,144.00L101.98,144.07L101.56,144.11L101.15,144.10L101.11,144.10"/><path d="M100.94,142.48L101.37,142.59L102.04,142.52L102.28,142.33"/></g></g><g id="Actor_.3"><g style="stroke:#000000;stroke-width:0.353"><path d="M102.43,183.83L102.51,184.75L103.25,185.61L104.61,186.34L106.53,186.91L108.88,187.27L111.48,187.40L114.33,187.30L117.09,186.97L119.64,186.43L121.84,185.71L123.55,184.86L124.68,183.93L125.17,182.98"/><path d="M103.25,184.45L103.34,183.55L104.08,182.65L105.42,181.80L107.27,181.05L109.51,180.46L111.86,180.07"/><path d="M109.94,285.51L109.95,285.49"/><path d="M124.37,182.80L124.03,181.94L123.06,181.17L121.53,180.54L119.52,180.10L117.17,179.86L115.24,179.85"/></g><g style="stroke:#000000;stroke-width:0.705"><path d="M128.43,235.45L131.50,284.92L131.07,286.25L130.03,287.53L128.43,288.69L126.36,289.64L123.95,290.34L121.35,290.74L118.70,290.81L116.18,290.55L113.93,289.98L112.09,289.13L110.77,288.06L110.04,286.82L102.43,183.83L103.01,182.88L104.21,181.98L105.95,181.16L108.12,180.48L110.61,179.97L110.77,179.95"/><path d="M103.25,184.45L103.83,185.30L105.04,186.03L106.82,186.60L109.05,186.97L111.48,187.10L114.29,187.02L116.94,186.69L119.39,186.16L121.47,185.45L123.05,184.62L124.03,183.72L124.37,182.80"/><path d="M128.34,234.02L125.17,182.98L124.99,182.07L124.17,181.23L122.76,180.53L120.84,180.00L118.53,179.67L116.29,179.57"/></g></g><g id="Actor_.4"><g style="stroke:#000000;stroke-width:0.353"><path d="M109.50,292.89L109.96,294.25L111.04,295.48L112.67,296.52L113.95,297.00"/><path d="M110.35,292.55L110.63,291.20L111.52,289.89L112.32,289.23"/><path d="M116.91,297.00L117.79,296.69L120.25,296.19L122.80,296.00L123.23,296.00L123.09,296.22L122.76,296.22L120.31,296.40L117.95,296.88L117.62,297.00"/><path d="M123.14,297.00L123.09,296.22"/><path d="M126.15,297.00L127.81,296.44L129.87,295.38L131.44,294.12L132.44,292.75L132.82,291.34"/><path d="M131.95,290.97L131.52,289.67L130.50,288.50L129.53,287.89"/></g><g style="stroke:#000000;stroke-width:0.705"><path d="M109.81,297.00L109.50,292.89L109.67,291.48L110.45,290.10L111.76,288.86"/><path d="M110.35,292.55L110.69,293.87L111.65,295.08L113.17,296.10L115.18,296.87L115.82,297.00"/><path d="M123.23,296.00L125.29,296.14L126.50,296.36"/><path d="M123.60,297.00L123.54,296.02"/><path d="M124.21,297.00L125.34,296.77L127.63,295.95L129.54,294.90L130.94,293.66L131.76,292.32L131.95,290.97"/><path d="M133.10,296.17L132.82,291.34L132.57,289.96L131.72,288.68L130.31,287.59L130.07,287.48"/></g></g><g id="Actor_.5"><g style="stroke:#000000;stroke-width:0.353"><path d="M115.78,143.24L115.91,143.34L116.17,143.42L116.52,143.46L116.94,143.47L117.36,143.44L117.76,143.37L118.07,143.27L118.28,143.15L118.35,143.04"/><path d="M117.30,143.11L117.28,142.78L116.61,142.86L116.38,143.05"/><path d="M116.57,143.29L116.94,143.29L117.32,143.26L117.67,143.20L117.95,143.12L118.14,143.01L118.20,142.91L118.15,142.81L117.97,142.73L117.69,142.67L117.34,142.65L116.97,142.66L116.60,142.71L116.28,142.79L116.04,142.88L115.91,142.99L115.91,143.09L116.03,143.18L116.26,143.25L116.57,143.29"/><path d="M117.28,142.78L117.72,142.90"/><path d="M116.61,142.86L116.62,143.11"/></g><g style="stroke:#000000;stroke-width:0.705"><path d="M115.99,144.57L116.25,144.65L116.56,144.68L116.60,144.69L117.02,144.69L117.44,144.66L117.84,144.59L118.15,144.49L118.36,144.38L118.43,144.26L118.35,143.04L118.34,142.99L118.26,142.85L118.23,142.82L118.04,142.74L118.00,142.73L117.72,142.67L117.36,142.65L116.96,142.66L116.58,142.71L116.25,142.79L116.00,142.88L115.97,142.90L115.83,143.01L115.80,143.04L115.79,143.08L115.78,143.12L115.78,143.24L115.86,144.46L115.99,144.57"/><path d="M116.38,143.05L116.82,143.16L117.49,143.09L117.72,142.90"/></g></g><g id="Actor_.6"><g style="stroke:#000000;stroke-width:0.353"><path d="M100.06,143.87L100.77,144.55L102.15,145.13L104.10,145.56L106.50,145.81L109.20,145.86L112.02,145.71L114.77,145.37L117.28,144.87L119.37,144.23L120.92,143.50L121.84,142.72L122.07,141.96"/><path d="M115.81,143.80L114.95,144.07L112.95,144.45L110.76,144.66L108.59,144.68L106.67,144.50L105.19,144.16L104.28,143.67L104.05,143.09"/><path d="M117.79,139.03L117.39,139.63L116.34,140.21L114.73,140.71L112.73,141.08L110.53,141.29L108.36,141.31L106.44,141.14L104.95,140.80L104.04,140.33L103.81,139.76"/><path d="M113.10,139.16L112.87,138.98L112.41,138.85L111.77,138.77L111.04,138.76L110.27,138.82L109.57,138.95L108.99,139.12L108.61,139.32L108.47,139.53"/><path d="M118.00,142.36L117.79,142.68"/></g><g style="stroke:#000000;stroke-width:0.705"><path d="M117.85,140.02L118.78,140.16L120.48,140.64L121.60,141.25L122.07,141.96L122.13,142.99L121.90,143.76L120.99,144.53L119.44,145.27L117.35,145.91L114.84,146.42L112.09,146.76L109.27,146.90L106.57,146.85L104.17,146.60L102.22,146.17L100.85,145.59L100.13,144.90L100.06,143.87L100.04,143.11L100.35,142.75"/><path d="M103.89,140.93L103.85,140.94L102.00,141.61L100.99,142.18"/><path d="M104.05,143.09L103.81,139.76L104.25,139.16L105.33,138.59L106.94,138.10L108.91,137.74L111.06,137.54L113.18,137.52L115.08,137.68L116.57,138.00L117.50,138.47L117.79,139.03L118.00,142.36"/><path d="M108.47,139.53L108.57,139.72L108.92,139.88L109.48,139.99L110.17,140.03L110.94,140.01L111.69,139.91L112.34,139.76L112.83,139.57L113.09,139.37L113.10,139.16"/></g></g><g id="Actor_.7"><g style="stroke:#000000;stroke-width:0.705"><path d="M149.17,115.32L74.48,113.75"/><path d="M74.57,109.12L149.39,110.49"/><path d="M168.33,115.72L153.71,115.42"/><path d="M168.45,110.84L153.82,110.57"/></g></g><g id="Actor_.8"><g style="stroke:#000000;stroke-width:0.353"><path d="M107.12,121.87L107.08,121.86L106.77,121.64L106.53,121.34L106.40,120.98L106.38,120.61L106.48,120.26L106.69,119.98L106.98,119.79L107.32,119.71L107.68,119.76L108.02,119.93L108.30,120.19L108.48,120.53L108.56,120.90L108.52,121.26L108.36,121.58L108.11,121.82L107.79,121.95L107.43,121.97L107.12,121.87"/><path d="M107.14,120.33L107.10,120.94L106.89,121.09L106.92,120.42"/><path d="M107.10,120.94L107.37,121.15L107.48,121.22L107.66,121.27L107.85,121.27L107.93,121.24L108.01,121.21"/><path d="M106.89,121.09L107.43,121.51L108.01,121.27"/><path d="M107.43,121.51L107.64,121.36L107.37,121.15L107.32,121.11L107.20,120.95L107.13,120.77L107.12,120.61L107.12,120.57L107.18,120.40L107.26,120.28"/><path d="M106.41,120.16L106.41,120.16"/><path d="M107.69,119.58L107.35,119.54L106.97,119.62L106.64,119.84"/><path d="M107.18,120.40L107.80,120.61L108.04,120.71"/><path d="M108.24,121.90L108.52,121.64L108.69,121.29"/><path d="M108.01,121.20L107.93,121.24L107.64,121.36"/><path d="M107.48,121.22L107.80,120.61L108.04,120.67"/><path d="M108.31,119.94L108.16,119.80"/><path d="M107.80,120.61L107.69,120.32"/><path d="M108.00,119.71L107.77,119.60"/><path d="M108.74,120.90L108.70,121.21"/><path d="M108.47,120.11L108.57,120.29"/><path d="M108.66,120.49L108.71,120.73"/></g><g style="stroke:#000000;stroke-width:0.705"><path d="M108.25,121.90L108.24,121.90L107.88,122.05L107.86,122.06L107.46,122.07L107.07,121.95L106.95,121.87L106.72,121.71L106.46,121.37L106.31,120.97L106.29,120.56L106.40,120.17L106.41,120.16L106.64,119.84L106.65,119.83"/><path d="M106.92,120.42L107.51,120.18L108.05,120.60L108.01,121.27"/></g></g><g id="Actor_.9"><g style="stroke:#000000;stroke-width:0.353"><path d="M70.00,114.02L69.90,113.90L69.62,113.10L69.45,112.11L69.44,111.03L69.56,110.00L69.82,109.11L70.19,108.47L70.42,108.29"/></g><g style="stroke:#000000;stroke-width:0.705"><path d="M70.47,108.15L66.37,108.07L65.94,108.40L65.58,109.03L65.31,109.92L65.18,110.95L65.20,112.02L65.37,113.01L65.66,113.81L66.05,114.33L66.49,114.52L70.01,114.60"/><path d="M69.88,112.16L69.83,111.89L69.83,111.80"/><path d="M69.93,112.51L69.95,112.60L69.96,112.62"/><path d="M69.82,111.42L69.82,111.13L69.83,111.04"/><path d="M69.93,110.31L69.91,110.39L69.88,110.67"/><path d="M70.03,110.00L70.06,109.90"/></g></g><g id="Actor_.10"><g style="stroke:#000000;stroke-width:0.353"><path d="M107.39,122.52L107.69,122.65L108.18,122.75L108.82,122.79L109.29,122.79"/></g><g style="stroke:#000000;stroke-width:0.705"><path d="M112.01,122.87L112.78,134.35L112.64,134.56L112.26,134.75L111.69,134.92L110.98,135.04L110.22,135.10L109.48,135.09L108.85,135.02L108.40,134.89L108.17,134.72L107.31,122.51"/></g></g><g id="Actor_.11"><g style="stroke:#000000;stroke-width:0.353"><path d="M64.30,110.61L65.14,110.63L65.19,111.15"/><path d="M65.14,110.63L65.23,110.58"/></g><g style="stroke:#000000;stroke-width:0.705"><path d="M65.27,112.43L64.46,112.41L64.30,110.61L65.25,110.09L65.29,110.09"/><path d="M66.12,107.50L66.12,107.50L66.03,107.51L65.93,107.45L65.89,107.38"/></g></g><g id="Actor_.12"><g style="stroke:#000000;stroke-width:0.353"><path d="M74.64,113.76L74.65,113.76"/></g><g style="stroke:#000000;stroke-width:0.705"><path d="M74.41,113.70L74.34,113.69"/><path d="M74.64,113.76L74.63,113.76"/><path d="M74.98,114.76L75.03,114.72"/><path d="M75.61,113.78L75.54,113.96"/><path d="M75.15,114.59L75.48,114.10"/><path d="M75.27,108.34L75.57,108.87"/><path d="M75.67,109.14L75.63,109.02"/><path d="M75.04,108.15L75.19,108.25"/></g></g><g id="Actor_Pendulum assembly.0"><g style="stroke:#000000;stroke-width:0.353"><path d="M61.09,107.09L62.79,107.12L63.82,118.48L64.75,119.40L69.43,119.52"/><path d="M61.56,105.42L63.26,105.45L62.79,107.12"/><path d="M63.26,105.45L66.91,103.54"/><path d="M63.82,118.48L68.58,115.76"/><path d="M69.49,116.66L64.75,119.40"/><path d="M64.49,115.73L66.63,114.52"/><path d="M67.01,108.08L66.90,106.84"/><path d="M70.09,117.27L152.95,119.18L153.17,123.92"/><path d="M69.93,111.86L73.36,111.92L73.50,116.88L149.19,118.60"/><path d="M73.50,116.88L78.06,114.20"/><path d="M73.36,111.92L73.43,110.29L73.69,108.78L74.14,107.54L74.72,106.70L75.36,106.35"/><path d="M75.28,114.96L75.75,114.88L76.18,114.43L76.48,113.80"/><path d="M75.40,107.94L75.87,108.07L76.29,108.56L76.54,109.16"/><path d="M106.90,122.50L106.69,122.41L106.24,122.05L105.90,121.56L105.73,121.01L105.74,120.44L105.92,119.92L106.26,119.51L106.73,119.25L107.26,119.17L107.81,119.28L108.32,119.56L108.72,119.99L108.97,120.52L109.06,121.09L108.96,121.64L108.69,122.11L108.28,122.45L108.09,122.53"/><path d="M105.73,122.70L105.72,122.47"/><path d="M106.73,119.77L106.70,119.80"/><path d="M108.21,121.92L108.18,121.93"/><path d="M149.16,113.44L152.91,113.51L152.95,119.18"/><path d="M152.91,113.51L152.98,111.80L153.19,110.22L153.52,108.92L153.95,108.04L154.42,107.67"/><path d="M154.41,116.40L154.72,116.14L154.99,115.54L155.02,115.44"/><path d="M155.13,110.59L154.87,109.92L154.58,109.62"/></g><g style="stroke:#000000;stroke-width:0.705"><path d="M106.05,122.48L105.73,122.70L62.42,121.59L61.09,107.09L61.56,105.42L65.23,103.51L66.91,103.54L67.59,104.59L67.90,108.10"/><path d="M64.49,115.73L63.84,108.48L66.90,106.84"/><path d="M66.08,114.34L64.45,115.26"/><path d="M66.10,107.27L66.19,108.21"/><path d="M70.07,116.68L69.49,116.66L68.58,115.76L68.47,114.56"/><path d="M69.43,119.52L70.21,118.63L70.09,117.27L69.93,111.86L70.00,110.23L70.27,108.72L70.72,107.48L71.30,106.65L71.95,106.29L75.36,106.35L76.02,106.51L76.61,107.16L77.09,108.24L77.30,109.17"/><path d="M75.40,107.94L74.94,108.20L74.53,108.81L74.22,109.72L74.05,110.81L74.03,111.97L74.16,113.08L74.44,114.01L74.82,114.66L75.28,114.96"/><path d="M78.01,113.83L78.06,114.20L149.17,115.71"/><path d="M105.72,122.47L109.28,122.57L109.29,122.80L119.84,123.07"/><path d="M107.01,119.59L107.41,119.53L107.82,119.61L108.20,119.82L108.49,120.14L108.69,120.54L108.75,120.96L108.67,121.37L108.48,121.72"/><path d="M106.88,119.68L106.73,119.77"/><path d="M107.06,119.58L107.04,119.59"/><path d="M108.36,121.79L108.50,121.68"/><path d="M122.83,123.14L153.17,123.92L156.50,120.97L156.29,116.31L156.22,115.47"/><path d="M149.19,118.60L149.16,113.44L149.22,111.73L149.44,110.15L149.78,108.86L150.21,107.98L150.69,107.60L154.42,107.67L154.88,107.83L155.30,108.51L155.63,109.63L155.77,110.60"/><path d="M154.58,109.62L154.27,109.69L153.97,110.12L153.72,110.86L153.54,111.84L153.46,112.95L153.49,114.07L153.61,115.06L153.83,115.84L154.10,116.30L154.41,116.40"/><path d="M153.88,115.92L154.07,115.52L154.09,115.42"/><path d="M154.01,110.06L154.20,110.58"/></g></g><g id="Actor_.13"><g style="stroke:#000000;stroke-width:0.353"><path d="M170.03,110.12L174.97,110.21"/><path d="M181.50,98.79L181.42,99.03L180.97,99.26L180.20,99.47L179.20,99.62L178.06,99.70L176.93,99.71L175.91,99.64L175.13,99.50L174.67,99.30L174.58,99.07"/><path d="M174.97,110.23L175.02,110.66L175.08,110.84L175.56,111.74L176.37,112.83L177.41,113.99L178.58,115.10L179.74,116.03L180.76,116.68L181.38,116.94L181.54,116.98"/></g><g style="stroke:#000000;stroke-width:0.705"><path d="M170.14,109.88L169.09,109.86L168.80,110.02L168.53,110.54L168.31,111.36L168.17,112.39L168.11,113.52L168.16,114.63L168.29,115.59L168.50,116.29L168.76,116.67L169.05,116.68L181.54,116.98L181.92,116.96L181.99,116.91L182.08,116.60L181.42,99.03"/><path d="M174.63,100.64L170.03,110.12"/><path d="M174.97,110.23L174.58,99.07L174.86,98.83L175.48,98.61L175.55,98.60"/><path d="M175.72,99.25L175.63,99.21L175.62,99.17"/><path d="M176.11,99.38L175.97,99.35L175.88,99.32"/><path d="M176.38,99.43L176.52,99.45L176.70,99.47"/><path d="M177.45,99.50L177.25,99.50L177.06,99.49"/><path d="M177.85,99.50L178.06,99.50L178.26,99.48"/><path d="M179.05,99.41L178.87,99.44L178.66,99.45"/><path d="M179.72,99.29L179.58,99.33L179.40,99.36"/><path d="M180.21,99.14L180.13,99.19L180.00,99.22"/><path d="M182.00,114.27L181.50,98.79L181.21,98.58L180.57,98.41L180.50,98.40"/></g></g><g id="Actor_.14"><g style="stroke:#000000;stroke-width:0.705"><path d="M175.57,99.13L172.12,-0.00"/><path d="M180.52,98.93L177.32,-0.00"/></g></g><g><g><path style="stroke:#000000;stroke-width:0.500" d="M194.46,253.13L191.35,253.13L133.19,297.00"/></g><g/><g><path style="fill:#ffffa0" d="M194.42,256.17L204.35,256.17L204.35,249.96L194.42,249.96z"/><path style="stroke:#000000;stroke-width:0.500;stroke-opacity:0.98" d="M194.42,256.17L204.35,256.17L204.35,249.96L194.42,249.96z"/><text xml:space="preserve" fill="#000000" stroke-width="0" x="195.20" y="254.42" font-size="3.68" opacity="1.00" font-family="MS Shell Dlg">Base</text></g></g><g><g><path style="stroke:#000000;stroke-width:0.500" d="M170.04,212.48L166.94,212.48L119.67,239.81"/></g><g><path style="fill:#000000" d="M120.68,239.77L120.67,239.67L120.66,239.58L120.64,239.48L120.60,239.39L120.56,239.30L120.51,239.21L120.45,239.14L120.39,239.06L120.31,239.00L120.23,238.94L120.15,238.89L120.06,238.85L119.97,238.81L119.87,238.79L119.78,238.78L119.68,238.77L119.58,238.78L119.48,238.79L119.39,238.81L119.30,238.85L119.21,238.89L119.12,238.94L119.04,239.00L118.97,239.06L118.91,239.14L118.85,239.21L118.80,239.30L118.76,239.39L118.72,239.48L118.70,239.58L118.68,239.67L118.68,239.77L118.68,239.87L118.70,239.97L118.72,240.06L118.76,240.15L118.80,240.24L118.85,240.33L118.91,240.40L118.97,240.48L119.04,240.54L119.12,240.60L119.21,240.65L119.30,240.69L119.39,240.73L119.48,240.75L119.58,240.77L119.68,240.77L119.78,240.77L119.87,240.75L119.97,240.73L120.06,240.69L120.15,240.65L120.23,240.60L120.31,240.54L120.39,240.48L120.45,240.40L120.51,240.33L120.56,240.24L120.60,240.15L120.64,240.06L120.66,239.97L120.67,239.87z"/></g><g><path style="fill:#ffffa0" d="M170.03,215.55L215.91,215.55L215.91,209.34L170.03,209.34z"/><path style="stroke:#000000;stroke-width:0.500;stroke-opacity:0.98" d="M170.03,215.55L215.91,215.55L215.91,209.34L170.03,209.34z"/><text xml:space="preserve" fill="#000000" stroke-width="0" x="170.81" y="213.81" font-size="3.78" opacity="1.00" font-family="MS Shell Dlg">PVC_pipe_50mm_250mm</text></g></g><g><g><path style="stroke:#000000;stroke-width:0.500" d="M160.29,175.62L157.18,175.62L112.01,160.28"/></g><g><path style="fill:#000000" d="M113.02,160.28L113.01,160.18L113.00,160.08L112.97,159.99L112.94,159.90L112.90,159.81L112.85,159.72L112.79,159.64L112.73,159.57L112.65,159.51L112.57,159.45L112.49,159.40L112.40,159.35L112.31,159.32L112.21,159.30L112.12,159.28L112.02,159.28L111.92,159.28L111.82,159.30L111.73,159.32L111.64,159.35L111.55,159.40L111.46,159.45L111.38,159.51L111.31,159.57L111.24,159.64L111.19,159.72L111.14,159.81L111.09,159.90L111.06,159.99L111.04,160.08L111.02,160.18L111.02,160.28L111.02,160.38L111.04,160.47L111.06,160.57L111.09,160.66L111.14,160.75L111.19,160.83L111.24,160.91L111.31,160.99L111.38,161.05L111.46,161.11L111.55,161.16L111.64,161.20L111.73,161.23L111.82,161.26L111.92,161.27L112.02,161.28L112.12,161.27L112.21,161.26L112.31,161.23L112.40,161.20L112.49,161.16L112.57,161.11L112.65,161.05L112.73,160.99L112.79,160.91L112.85,160.83L112.90,160.75L112.94,160.66L112.97,160.57L113.00,160.47L113.01,160.38z"/></g><g><path style="fill:#ffffa0" d="M160.28,178.71L202.75,178.71L202.75,172.51L160.28,172.51z"/><path style="stroke:#000000;stroke-width:0.500;stroke-opacity:0.98" d="M160.28,178.71L202.75,178.71L202.75,172.51L160.28,172.51z"/><text xml:space="preserve" fill="#000000" stroke-width="0" x="161.05" y="176.97" font-size="3.78" opacity="1.00" font-family="MS Shell Dlg">Motor housing assembly</text></g></g><g><g><path style="stroke:#000000;stroke-width:0.500" d="M159.78,141.09L156.68,141.09L118.25,121.53"/></g><g><path style="fill:#000000" d="M119.25,121.54L119.25,121.44L119.23,121.34L119.21,121.25L119.18,121.15L119.13,121.06L119.08,120.98L119.02,120.90L118.96,120.83L118.89,120.76L118.81,120.70L118.72,120.65L118.63,120.61L118.54,120.58L118.45,120.56L118.35,120.54L118.25,120.54L118.15,120.54L118.06,120.56L117.96,120.58L117.87,120.61L117.78,120.65L117.70,120.70L117.62,120.76L117.54,120.83L117.48,120.90L117.42,120.98L117.37,121.06L117.33,121.15L117.29,121.25L117.27,121.34L117.26,121.44L117.25,121.54L117.26,121.63L117.27,121.73L117.29,121.83L117.33,121.92L117.37,122.01L117.42,122.09L117.48,122.17L117.54,122.24L117.62,122.31L117.70,122.37L117.78,122.42L117.87,122.46L117.96,122.49L118.06,122.52L118.15,122.53L118.25,122.54L118.35,122.53L118.45,122.52L118.54,122.49L118.63,122.46L118.72,122.42L118.81,122.37L118.89,122.31L118.96,122.24L119.02,122.17L119.08,122.09L119.13,122.01L119.18,121.92L119.21,121.83L119.23,121.73L119.25,121.63z"/></g><g><path style="fill:#ffffa0" d="M159.77,144.19L195.31,144.19L195.31,137.99L159.77,137.99z"/><path style="stroke:#000000;stroke-width:0.500;stroke-opacity:0.98" d="M159.77,144.19L195.31,144.19L195.31,137.99L159.77,137.99z"/><text xml:space="preserve" fill="#000000" stroke-width="0" x="160.55" y="142.45" font-size="3.77" opacity="1.00" font-family="MS Shell Dlg">Pendulum assembly</text></g></g><g/><g id="paperID" visibility="hidden" opacity="0.00" transform="scale(0.000100)"><path style="stroke:#000000;stroke-width:0.500;fill:#e6e6e6;fill-rule:evenodd" d="M-2000.00,-2000.00L2266.95,-2000.00L2266.95,2297.00L-2000.00,2297.00zM0.00,0.00L266.95,0.00L266.95,297.00L0.00,297.00z"/><path style="fill:#000000;fill-opacity:0.118" d="M3.00,297.00L266.95,297.00L266.95,3.00L269.95,3.00L269.95,300.00L3.00,300.00z"/></g><g id="hotspot.0" ident="" onmouseover="ShowHotSpot(evt,&apos;0&apos;)" onmouseout="HideHotSpot(evt,&apos;0&apos;)" onmousemove="ShowToolTip(evt,&apos;0&apos;,&quot;double_bearing_housing&quot;)" opacity="0"><path style="fill:#00ff00;fill-rule:evenodd" d="M67.61,104.63L67.87,108.01L66.26,108.00L66.06,107.42L65.77,107.37L63.98,108.43L64.06,110.70L64.49,115.10L65.33,114.82L65.74,114.48L68.36,114.74L68.61,115.75L69.39,116.53L69.86,116.62L70.12,109.77L70.62,107.75L71.29,106.65L71.80,106.40L75.69,106.40L76.45,106.90L77.22,109.02L75.60,109.02L75.18,108.18L74.81,108.36L74.16,110.27L74.16,112.72L74.40,114.00L74.69,114.51L75.15,114.59L75.57,113.96L81.74,114.24L129.47,115.25L149.18,115.59L149.42,110.53L149.92,108.50L150.59,107.65L154.50,107.65L154.97,107.94L155.24,108.43L155.76,110.53L154.14,110.49L153.94,110.21L153.71,111.03L153.71,115.56L153.95,115.81L154.14,115.54L156.25,115.49L156.52,120.90L153.38,123.83L151.19,123.84L112.05,122.83L109.27,122.57L102.20,122.57L62.77,121.60L62.47,121.39L61.28,108.94L61.28,106.48L61.66,105.35L64.98,103.62L66.86,103.61zM108.01,119.79L108.79,120.80L108.43,121.81L106.75,121.81L106.47,121.33L106.46,120.10L107.16,119.51z"/></g><g id="ToolTip" visibility="hidden" opacity="0" transform="translate(0,0)"><rect id="ToolTipShadow" opacity="0.20" fill="black" stroke="none" x="0" y="0" width="30" height="8"/><rect id="ToolTipBG" fill="#ffffe1" stroke="black" x="0" y="0" width="30" height="8"/><text xml:space="preserve" id="ToolTipText" fill="black" x="0" y="0" width="30" height="8">tooltip</text></g></g></svg>